<svg xmlns="http://www.w3.org/2000/svg" xmlns:xlink="http://www.w3.org/1999/xlink" width="200" zoomAndPan="magnify" viewBox="0 0 150 149.999998" height="200" preserveAspectRatio="xMidYMid meet" version="1.2"><g id="4a4d5de1d8"><path style=" stroke:none;fill-rule:nonzero;fill:#caddff;fill-opacity:1;" d="M 140.570312 59.835938 C 134.351562 28.304688 105.617188 5.070312 79.257812 2.640625 C 57.421875 0.625 18.015625 0.882812 7.9375 20.121094 C 1.597656 32.21875 17.53125 48.703125 12.34375 76.109375 C 7.855469 99.835938 0 108.328125 4.980469 120.421875 C 9.050781 130.304688 18.566406 134.980469 24.644531 137.96875 C 48.613281 149.75 85.023438 148.367188 111.238281 126.878906 C 117.371094 121.851562 147.605469 95.507812 140.570312 59.835938 "/><path style=" stroke:none;fill-rule:nonzero;fill:#000000;fill-opacity:1;" d="M 115.914062 142.105469 L 52.492188 142.105469 C 49.761719 142.105469 47.824219 139.898438 48.167969 137.179688 L 63.785156 13.964844 C 64.132812 11.242188 66.625 9.039062 69.359375 9.039062 L 129.597656 8.335938 C 136.511719 8.335938 137.449219 11.242188 137.105469 13.964844 L 121.488281 137.179688 C 121.144531 139.898438 118.648438 142.105469 115.914062 142.105469 "/><path style=" stroke:none;fill-rule:nonzero;fill:#99b9ff;fill-opacity:1;" d="M 112.097656 142.105469 L 48.675781 142.105469 C 45.945312 142.105469 44.007812 139.894531 44.351562 137.164062 L 59.96875 13.554688 C 60.3125 10.828125 62.808594 8.613281 65.542969 8.613281 L 128.964844 8.613281 C 131.695312 8.613281 133.632812 10.828125 133.289062 13.554688 L 117.671875 137.164062 C 117.328125 139.894531 114.832031 142.105469 112.097656 142.105469 "/><path style=" stroke:none;fill-rule:nonzero;fill:#caddff;fill-opacity:1;" d="M 47.96875 137.332031 L 62.878906 19.308594 C 62.957031 18.679688 63.535156 18.167969 64.164062 18.167969 L 127.925781 18.167969 C 128.558594 18.167969 129.003906 18.679688 128.925781 19.308594 L 114.015625 137.332031 C 113.933594 137.964844 113.359375 138.472656 112.726562 138.472656 L 48.964844 138.472656 C 48.335938 138.472656 47.886719 137.964844 47.96875 137.332031 "/><path style=" stroke:none;fill-rule:nonzero;fill:#caddff;fill-opacity:1;" d="M 96.460938 14.898438 C 95.4375 14.898438 94.710938 14.070312 94.839844 13.046875 C 94.96875 12.027344 95.902344 11.195312 96.925781 11.195312 C 97.953125 11.195312 98.675781 12.027344 98.546875 13.046875 C 98.417969 14.070312 97.484375 14.898438 96.460938 14.898438 "/><path style=" stroke:none;fill-rule:nonzero;fill:#000000;fill-opacity:1;" d="M 112.097656 142.367188 L 48.675781 142.367188 C 47.285156 142.367188 46.042969 141.824219 45.175781 140.84375 C 44.300781 139.851562 43.917969 138.535156 44.09375 137.128906 L 53.410156 63.382812 C 53.429688 63.238281 53.558594 63.136719 53.703125 63.15625 C 53.847656 63.171875 53.949219 63.304688 53.929688 63.445312 L 44.613281 137.195312 C 44.453125 138.449219 44.792969 139.621094 45.570312 140.5 C 46.335938 141.367188 47.4375 141.84375 48.675781 141.84375 L 112.097656 141.84375 C 114.699219 141.84375 117.085938 139.730469 117.414062 137.128906 L 133.03125 13.523438 C 133.1875 12.269531 132.847656 11.097656 132.074219 10.21875 C 131.304688 9.351562 130.203125 8.875 128.964844 8.875 L 65.542969 8.875 C 62.941406 8.875 60.554688 10.988281 60.230469 13.589844 L 55.519531 50.84375 C 55.503906 50.988281 55.375 51.089844 55.230469 51.070312 C 55.085938 51.054688 54.984375 50.921875 55.003906 50.78125 L 59.710938 13.523438 C 60.070312 10.671875 62.6875 8.351562 65.542969 8.351562 L 128.964844 8.351562 C 130.355469 8.351562 131.597656 8.894531 132.464844 9.875 C 133.339844 10.867188 133.726562 12.1875 133.546875 13.589844 L 117.929688 137.195312 C 117.570312 140.046875 114.953125 142.367188 112.097656 142.367188 "/><path style=" stroke:none;fill-rule:nonzero;fill:#99b9ff;fill-opacity:1;" d="M 107.214844 122.574219 L 58.78125 122.515625 C 58.523438 122.515625 58.324219 122.28125 58.367188 122.027344 L 59.035156 118.167969 C 59.070312 117.964844 59.246094 117.820312 59.449219 117.820312 L 107.773438 117.882812 C 108.03125 117.882812 108.226562 118.109375 108.1875 118.363281 L 107.628906 122.214844 C 107.597656 122.421875 107.421875 122.574219 107.214844 122.574219 "/><path style=" stroke:none;fill-rule:nonzero;fill:#99b9ff;fill-opacity:1;" d="M 105.101562 131.328125 L 58.773438 131.328125 C 57.910156 131.328125 57.257812 130.554688 57.40625 129.707031 L 57.734375 127.835938 C 57.851562 127.171875 58.425781 126.691406 59.101562 126.691406 L 105.386719 126.632812 C 106.234375 126.632812 106.886719 127.386719 106.761719 128.222656 L 106.472656 130.148438 C 106.375 130.824219 105.792969 131.328125 105.101562 131.328125 "/><path style=" stroke:none;fill-rule:nonzero;fill:#99b9ff;fill-opacity:1;" d="M 135.65625 138.472656 C 135.65625 138.472656 139.226562 137.359375 145.066406 126.039062 C 150 116.480469 145.601562 107.242188 144.714844 101.066406 C 144.625 100.433594 143.761719 100.34375 143.546875 100.945312 C 142.070312 105.09375 139.691406 112.644531 140.074219 117.289062 C 140.628906 123.988281 135.65625 138.472656 135.65625 138.472656 "/><path style=" stroke:none;fill-rule:nonzero;fill:#99b9ff;fill-opacity:1;" d="M 139.523438 132.28125 L 140.792969 122.25 C 141.34375 117.894531 140.632812 113.472656 138.742188 109.519531 C 135.984375 103.757812 135.765625 97.089844 138.144531 91.160156 L 140.183594 86.066406 C 140.441406 85.425781 139.621094 84.902344 139.15625 85.414062 L 136.289062 88.5625 C 129.789062 95.703125 127.59375 105.816406 130.542969 115.042969 L 135.824219 131.570312 L 139.523438 132.28125 "/><path style=" stroke:none;fill-rule:nonzero;fill:#caddff;fill-opacity:1;" d="M 140.136719 127.710938 C 140.125 127.710938 140.113281 127.707031 140.105469 127.707031 C 139.960938 127.6875 139.859375 127.558594 139.878906 127.414062 L 140.535156 122.21875 C 140.867188 119.582031 140.738281 116.9375 140.148438 114.347656 C 140.117188 114.207031 140.203125 114.066406 140.34375 114.035156 C 140.484375 114.003906 140.625 114.089844 140.660156 114.230469 C 141.261719 116.878906 141.394531 119.585938 141.054688 122.285156 L 140.394531 127.480469 C 140.378906 127.613281 140.265625 127.710938 140.136719 127.710938 "/><path style=" stroke:none;fill-rule:nonzero;fill:#99b9ff;fill-opacity:1;" d="M 137.886719 132.613281 L 133.480469 121.367188 C 132.226562 118.171875 129.589844 115.726562 126.320312 114.738281 L 123.316406 113.832031 C 122.585938 113.609375 122.097656 114.574219 122.699219 115.042969 L 124.546875 116.476562 C 126.546875 118.03125 127.742188 120.414062 127.796875 122.960938 C 127.828125 124.457031 128.253906 125.917969 129.03125 127.191406 L 132.015625 132.085938 L 137.886719 132.613281 "/><path style=" stroke:none;fill-rule:nonzero;fill:#caddff;fill-opacity:1;" d="M 137.234375 127.589844 C 137.226562 127.589844 137.21875 127.589844 137.210938 127.589844 C 137.066406 127.574219 136.960938 127.449219 136.972656 127.304688 C 137.644531 120.144531 136.203125 115.53125 134.933594 111.464844 C 134.34375 109.574219 133.785156 107.792969 133.453125 105.871094 C 131.890625 96.796875 137.226562 88.925781 137.28125 88.847656 C 137.363281 88.726562 137.523438 88.699219 137.644531 88.78125 C 137.761719 88.859375 137.792969 89.023438 137.710938 89.140625 C 137.65625 89.21875 132.441406 96.925781 133.96875 105.78125 C 134.292969 107.667969 134.847656 109.4375 135.433594 111.308594 C 136.714844 115.425781 138.175781 120.089844 137.492188 127.355469 C 137.480469 127.488281 137.367188 127.589844 137.234375 127.589844 "/><path style=" stroke:none;fill-rule:nonzero;fill:#caddff;fill-opacity:1;" d="M 135.363281 124.28125 C 135.253906 124.28125 135.152344 124.210938 135.117188 124.101562 C 134.550781 122.394531 133.269531 120.613281 132.296875 119.421875 C 132.207031 119.3125 132.222656 119.148438 132.335938 119.054688 C 132.445312 118.964844 132.609375 118.980469 132.703125 119.09375 C 133.703125 120.320312 135.023438 122.152344 135.613281 123.9375 C 135.65625 124.074219 135.582031 124.222656 135.445312 124.269531 C 135.417969 124.277344 135.390625 124.28125 135.363281 124.28125 "/><path style=" stroke:none;fill-rule:nonzero;fill:#caddff;fill-opacity:1;" d="M 143.105469 122.789062 C 143.089844 122.789062 143.074219 122.789062 143.0625 122.785156 C 142.917969 122.761719 142.820312 122.628906 142.847656 122.484375 C 144.046875 115.40625 143.628906 104.5 143.625 104.390625 C 143.621094 104.246094 143.734375 104.125 143.875 104.121094 C 143.878906 104.121094 143.882812 104.121094 143.886719 104.121094 C 144.027344 104.121094 144.140625 104.230469 144.148438 104.371094 C 144.152344 104.480469 144.570312 115.4375 143.363281 122.574219 C 143.339844 122.699219 143.230469 122.789062 143.105469 122.789062 "/><path style=" stroke:none;fill-rule:nonzero;fill:#caddff;fill-opacity:1;" d="M 132.582031 128.664062 C 132.4375 128.664062 132.320312 128.550781 132.320312 128.40625 C 132.234375 119.632812 125.222656 115.785156 125.152344 115.746094 C 125.027344 115.675781 124.980469 115.519531 125.046875 115.394531 C 125.113281 115.265625 125.273438 115.21875 125.398438 115.285156 C 125.472656 115.324219 132.753906 119.320312 132.84375 128.402344 C 132.84375 128.546875 132.730469 128.664062 132.585938 128.664062 C 132.582031 128.664062 132.582031 128.664062 132.582031 128.664062 "/><path style=" stroke:none;fill-rule:nonzero;fill:#caddff;fill-opacity:1;" d="M 133.539062 112.136719 C 133.460938 112.136719 133.382812 112.101562 133.332031 112.039062 C 131.40625 109.566406 130.578125 106.335938 130.546875 106.199219 C 130.511719 106.058594 130.59375 105.917969 130.734375 105.882812 C 130.875 105.847656 131.015625 105.929688 131.050781 106.070312 C 131.058594 106.101562 131.890625 109.335938 133.746094 111.71875 C 133.832031 111.832031 133.8125 111.996094 133.699219 112.082031 C 133.652344 112.121094 133.59375 112.136719 133.539062 112.136719 "/><path style=" stroke:none;fill-rule:nonzero;fill:#5479f7;fill-opacity:1;" d="M 142.59375 145.675781 L 131.09375 145.675781 C 129.65625 145.675781 128.492188 144.511719 128.492188 143.078125 L 128.492188 129.894531 L 145.191406 129.894531 L 145.191406 143.078125 C 145.191406 144.511719 144.027344 145.675781 142.59375 145.675781 "/><path style=" stroke:none;fill-rule:nonzero;fill:#ffffff;fill-opacity:1;" d="M 143.554688 132.941406 L 130.132812 132.941406 C 129.988281 132.941406 129.871094 132.824219 129.871094 132.679688 C 129.871094 132.535156 129.988281 132.417969 130.132812 132.417969 L 143.554688 132.417969 C 143.699219 132.417969 143.816406 132.535156 143.816406 132.679688 C 143.816406 132.824219 143.699219 132.941406 143.554688 132.941406 "/><path style=" stroke:none;fill-rule:nonzero;fill:#99b9ff;fill-opacity:1;" d="M 145.421875 30.164062 C 146.75 30.164062 147.679688 31.238281 147.5 32.566406 L 145.257812 49.105469 C 145.078125 50.433594 143.855469 51.507812 142.523438 51.507812 L 104.328125 51.507812 C 103 51.507812 102.066406 50.433594 102.246094 49.105469 L 104.492188 32.566406 C 104.671875 31.238281 105.894531 30.164062 107.226562 30.164062 L 145.421875 30.164062 "/><path style=" stroke:none;fill-rule:nonzero;fill:#000000;fill-opacity:1;" d="M 103.597656 39.421875 C 103.585938 39.421875 103.574219 39.417969 103.5625 39.417969 C 103.417969 39.398438 103.320312 39.265625 103.339844 39.125 L 104.234375 32.53125 C 104.429688 31.082031 105.773438 29.902344 107.226562 29.902344 L 126.332031 30.113281 C 126.476562 30.113281 126.59375 30.230469 126.589844 30.375 C 126.589844 30.519531 126.472656 30.632812 126.332031 30.632812 C 126.328125 30.632812 126.328125 30.632812 126.328125 30.632812 L 107.222656 30.421875 C 106.023438 30.421875 104.914062 31.398438 104.75 32.601562 L 103.855469 39.195312 C 103.839844 39.324219 103.726562 39.421875 103.597656 39.421875 "/><path style=" stroke:none;fill-rule:nonzero;fill:#000000;fill-opacity:1;" d="M 117.140625 52.214844 C 117 52.214844 116.882812 52.101562 116.882812 51.957031 C 116.878906 51.8125 116.992188 51.695312 117.136719 51.691406 L 142.519531 51.25 C 143.726562 51.246094 144.835938 50.269531 145 49.070312 L 147.242188 32.53125 C 147.320312 31.960938 147.171875 31.425781 146.824219 31.03125 C 146.480469 30.636719 145.984375 30.421875 145.421875 30.421875 L 136.546875 30.402344 C 136.40625 30.402344 136.289062 30.285156 136.289062 30.140625 C 136.289062 29.996094 136.40625 29.878906 136.550781 29.878906 L 145.421875 29.902344 C 146.136719 29.902344 146.773438 30.179688 147.21875 30.6875 C 147.664062 31.199219 147.859375 31.878906 147.761719 32.601562 L 145.515625 49.140625 C 145.320312 50.589844 143.980469 51.769531 142.527344 51.769531 L 117.144531 52.214844 C 117.144531 52.214844 117.144531 52.214844 117.140625 52.214844 "/><path style=" stroke:none;fill-rule:nonzero;fill:#99b9ff;fill-opacity:1;" d="M 138.542969 37.328125 L 116.609375 37.328125 C 115.984375 37.328125 115.550781 36.824219 115.632812 36.203125 C 115.71875 35.582031 116.292969 35.078125 116.914062 35.078125 L 138.847656 35.078125 C 139.472656 35.078125 139.90625 35.582031 139.824219 36.203125 C 139.738281 36.824219 139.167969 37.328125 138.542969 37.328125 "/><path style=" stroke:none;fill-rule:nonzero;fill:#caddff;fill-opacity:1;" d="M 113.433594 36.203125 C 113.351562 36.824219 112.777344 37.328125 112.15625 37.328125 C 111.535156 37.328125 111.097656 36.824219 111.183594 36.203125 C 111.265625 35.582031 111.839844 35.078125 112.460938 35.078125 C 113.082031 35.078125 113.519531 35.582031 113.433594 36.203125 "/><path style=" stroke:none;fill-rule:nonzero;fill:#caddff;fill-opacity:1;" d="M 137.886719 42.175781 L 115.949219 42.175781 C 115.328125 42.175781 114.890625 41.671875 114.976562 41.050781 C 115.0625 40.429688 115.632812 39.925781 116.257812 39.925781 L 138.191406 39.925781 C 138.816406 39.925781 139.25 40.429688 139.164062 41.050781 C 139.082031 41.671875 138.507812 42.175781 137.886719 42.175781 "/><path style=" stroke:none;fill-rule:nonzero;fill:#caddff;fill-opacity:1;" d="M 112.777344 41.050781 C 112.695312 41.671875 112.121094 42.175781 111.5 42.175781 C 110.875 42.175781 110.441406 41.671875 110.527344 41.050781 C 110.609375 40.429688 111.183594 39.925781 111.804688 39.925781 C 112.425781 39.925781 112.863281 40.429688 112.777344 41.050781 "/><path style=" stroke:none;fill-rule:nonzero;fill:#caddff;fill-opacity:1;" d="M 137.230469 47.019531 L 115.292969 47.019531 C 114.671875 47.019531 114.234375 46.515625 114.320312 45.894531 C 114.402344 45.273438 114.976562 44.769531 115.597656 44.769531 L 137.535156 44.769531 C 138.15625 44.769531 138.59375 45.273438 138.507812 45.894531 C 138.425781 46.515625 137.851562 47.019531 137.230469 47.019531 "/><path style=" stroke:none;fill-rule:nonzero;fill:#caddff;fill-opacity:1;" d="M 112.121094 45.894531 C 112.039062 46.515625 111.464844 47.019531 110.84375 47.019531 C 110.222656 47.019531 109.785156 46.515625 109.871094 45.894531 C 109.953125 45.273438 110.527344 44.769531 111.148438 44.769531 C 111.769531 44.769531 112.207031 45.273438 112.121094 45.894531 "/><path style=" stroke:none;fill-rule:nonzero;fill:#ffffff;fill-opacity:1;" d="M 67.6875 15.101562 C 69.011719 15.101562 69.941406 16.175781 69.761719 17.5 L 67.523438 33.996094 C 67.34375 35.320312 66.125 36.394531 64.796875 36.394531 L 16.546875 36.394531 L 15.550781 40.867188 L 12.8125 36.394531 L 5.441406 36.394531 C 4.117188 36.394531 3.1875 35.320312 3.367188 33.996094 L 5.605469 17.5 C 5.785156 16.175781 7.003906 15.101562 8.332031 15.101562 L 67.6875 15.101562 "/><path style=" stroke:none;fill-rule:nonzero;fill:#000000;fill-opacity:1;" d="M 64.800781 36.652344 L 60.257812 36.652344 C 60.113281 36.652344 59.996094 36.535156 59.996094 36.394531 C 59.996094 36.25 60.113281 36.132812 60.257812 36.132812 L 64.800781 36.132812 C 65.996094 36.132812 67.101562 35.15625 67.265625 33.960938 L 69.503906 17.464844 C 69.578125 16.894531 69.433594 16.363281 69.085938 15.96875 C 68.746094 15.578125 68.246094 15.363281 67.6875 15.363281 L 63.03125 15.148438 C 62.890625 15.144531 62.777344 15.023438 62.785156 14.878906 C 62.789062 14.734375 62.910156 14.621094 63.054688 14.628906 L 67.699219 14.839844 C 68.402344 14.839844 69.039062 15.121094 69.480469 15.625 C 69.925781 16.136719 70.117188 16.816406 70.019531 17.535156 L 67.785156 34.03125 C 67.585938 35.476562 66.25 36.652344 64.800781 36.652344 "/><path style=" stroke:none;fill-rule:nonzero;fill:#000000;fill-opacity:1;" d="M 15.8125 41.988281 L 12.660156 36.65625 L 5.441406 36.65625 C 4.730469 36.65625 4.09375 36.375 3.652344 35.871094 C 3.203125 35.359375 3.011719 34.683594 3.109375 33.960938 L 5.347656 17.464844 C 5.542969 16.019531 6.882812 14.84375 8.332031 14.84375 L 55.148438 14.628906 C 55.292969 14.628906 55.410156 14.746094 55.410156 14.890625 C 55.410156 15.035156 55.292969 15.152344 55.148438 15.152344 L 8.332031 15.363281 C 7.132812 15.363281 6.027344 16.339844 5.863281 17.535156 L 3.628906 34.03125 C 3.550781 34.601562 3.699219 35.132812 4.042969 35.527344 C 4.386719 35.917969 4.882812 36.132812 5.441406 36.132812 L 12.960938 36.132812 L 15.546875 40.507812 L 16.328125 36.132812 L 35.175781 36.132812 C 35.320312 36.132812 35.4375 36.25 35.4375 36.394531 C 35.4375 36.539062 35.320312 36.65625 35.175781 36.65625 L 16.765625 36.65625 L 15.8125 41.988281 "/><path style=" stroke:none;fill-rule:nonzero;fill:#99b9ff;fill-opacity:1;" d="M 46.539062 22.25 L 12.15625 22.25 C 11.664062 22.25 11.316406 21.746094 11.382812 21.128906 C 11.449219 20.507812 11.90625 20.007812 12.398438 20.007812 L 46.78125 20.007812 C 47.277344 20.007812 47.625 20.507812 47.558594 21.128906 C 47.488281 21.746094 47.035156 22.25 46.539062 22.25 "/><path style=" stroke:none;fill-rule:nonzero;fill:#caddff;fill-opacity:1;" d="M 55.132812 27.082031 L 11.21875 27.082031 C 10.585938 27.082031 10.144531 26.582031 10.230469 25.960938 C 10.316406 25.339844 10.894531 24.839844 11.527344 24.839844 L 55.441406 24.839844 C 56.074219 24.839844 56.515625 25.339844 56.429688 25.960938 C 56.347656 26.582031 55.765625 27.082031 55.132812 27.082031 "/><path style=" stroke:none;fill-rule:nonzero;fill:#caddff;fill-opacity:1;" d="M 61.523438 31.917969 L 10.394531 31.917969 C 9.65625 31.917969 9.144531 31.414062 9.242188 30.792969 C 9.34375 30.175781 10.019531 29.671875 10.753906 29.671875 L 61.882812 29.671875 C 62.621094 29.671875 63.136719 30.175781 63.035156 30.792969 C 62.9375 31.414062 62.257812 31.917969 61.523438 31.917969 "/><path style=" stroke:none;fill-rule:nonzero;fill:#ffffff;fill-opacity:1;" d="M 139.433594 1.589844 C 140.941406 1.589844 141.996094 2.808594 141.792969 4.3125 L 139.25 23.039062 C 139.046875 24.542969 137.660156 25.761719 136.15625 25.761719 L 80.566406 25.761719 C 79.0625 25.761719 78.007812 24.542969 78.210938 23.039062 L 80.75 4.3125 C 80.957031 2.808594 82.339844 1.589844 83.847656 1.589844 L 139.433594 1.589844 "/><path style=" stroke:none;fill-rule:nonzero;fill:#caddff;fill-opacity:1;" d="M 131.648438 9.707031 L 94.472656 9.707031 C 93.765625 9.707031 93.273438 9.136719 93.367188 8.433594 C 93.464844 7.726562 94.113281 7.15625 94.816406 7.15625 L 131.996094 7.15625 C 132.699219 7.15625 133.191406 7.726562 133.097656 8.433594 C 133 9.136719 132.351562 9.707031 131.648438 9.707031 "/><path style=" stroke:none;fill-rule:nonzero;fill:#caddff;fill-opacity:1;" d="M 90.878906 8.433594 C 90.785156 9.136719 90.136719 9.707031 89.429688 9.707031 C 88.726562 9.707031 88.234375 9.136719 88.328125 8.433594 C 88.425781 7.726562 89.074219 7.15625 89.777344 7.15625 C 90.480469 7.15625 90.972656 7.726562 90.878906 8.433594 "/><path style=" stroke:none;fill-rule:nonzero;fill:#caddff;fill-opacity:1;" d="M 130.902344 15.191406 L 93.726562 15.191406 C 93.023438 15.191406 92.527344 14.621094 92.625 13.917969 C 92.71875 13.214844 93.367188 12.644531 94.074219 12.644531 L 131.25 12.644531 C 131.953125 12.644531 132.449219 13.214844 132.351562 13.917969 C 132.257812 14.621094 131.609375 15.191406 130.902344 15.191406 "/><path style=" stroke:none;fill-rule:nonzero;fill:#caddff;fill-opacity:1;" d="M 90.136719 13.917969 C 90.039062 14.621094 89.390625 15.191406 88.6875 15.191406 C 87.980469 15.191406 87.488281 14.621094 87.585938 13.917969 C 87.679688 13.214844 88.328125 12.644531 89.03125 12.644531 C 89.738281 12.644531 90.230469 13.214844 90.136719 13.917969 "/><path style=" stroke:none;fill-rule:nonzero;fill:#caddff;fill-opacity:1;" d="M 130.160156 20.679688 L 92.980469 20.679688 C 92.277344 20.679688 91.785156 20.109375 91.878906 19.40625 C 91.976562 18.703125 92.625 18.132812 93.328125 18.132812 L 130.503906 18.132812 C 131.210938 18.132812 131.703125 18.703125 131.609375 19.40625 C 131.511719 20.109375 130.863281 20.679688 130.160156 20.679688 "/><path style=" stroke:none;fill-rule:nonzero;fill:#caddff;fill-opacity:1;" d="M 89.390625 19.40625 C 89.296875 20.109375 88.648438 20.679688 87.941406 20.679688 C 87.238281 20.679688 86.746094 20.109375 86.839844 19.40625 C 86.9375 18.703125 87.582031 18.132812 88.289062 18.132812 C 88.992188 18.132812 89.484375 18.703125 89.390625 19.40625 "/><path style=" stroke:none;fill-rule:nonzero;fill:#000000;fill-opacity:1;" d="M 136.15625 26.023438 L 80.566406 26.023438 C 79.765625 26.023438 79.054688 25.710938 78.558594 25.144531 C 78.058594 24.574219 77.84375 23.8125 77.953125 23.003906 L 79.441406 12.035156 C 79.460938 11.894531 79.59375 11.792969 79.734375 11.8125 C 79.878906 11.832031 79.976562 11.964844 79.957031 12.105469 L 78.46875 23.074219 C 78.382812 23.730469 78.554688 24.34375 78.953125 24.800781 C 79.347656 25.253906 79.921875 25.5 80.566406 25.5 L 136.15625 25.5 C 137.53125 25.5 138.804688 24.382812 138.992188 23.003906 L 141.53125 4.277344 C 141.621094 3.621094 141.449219 3.007812 141.050781 2.550781 C 140.65625 2.097656 140.082031 1.851562 139.433594 1.851562 L 83.847656 1.851562 C 82.46875 1.851562 81.199219 2.96875 81.011719 4.347656 L 80.875 5.347656 C 80.855469 5.488281 80.722656 5.589844 80.582031 5.570312 C 80.4375 5.550781 80.335938 5.417969 80.355469 5.277344 L 80.492188 4.277344 C 80.714844 2.652344 82.21875 1.328125 83.847656 1.328125 L 139.433594 1.328125 C 140.234375 1.328125 140.949219 1.640625 141.441406 2.207031 C 141.945312 2.78125 142.160156 3.539062 142.050781 4.347656 L 139.507812 23.074219 C 139.289062 24.703125 137.785156 26.023438 136.15625 26.023438 "/><path style=" stroke:none;fill-rule:nonzero;fill:#000000;fill-opacity:1;" d="M 118.882812 84.253906 C 118.824219 87.238281 118.324219 91.269531 116.289062 93.820312 C 115.117188 95.289062 113.589844 96.132812 111.75 96.324219 C 103.484375 97.191406 98.949219 87.167969 98.761719 86.738281 C 98.421875 85.96875 98.769531 85.070312 99.539062 84.730469 C 100.308594 84.390625 101.210938 84.738281 101.550781 85.507812 C 101.585938 85.589844 105.378906 93.929688 111.429688 93.296875 C 112.441406 93.191406 113.25 92.742188 113.902344 91.921875 C 116.140625 89.117188 115.949219 82.90625 115.6875 80.75 C 115.585938 79.914062 116.179688 79.15625 117.015625 79.050781 C 117.851562 78.949219 118.613281 79.546875 118.714844 80.378906 C 118.734375 80.535156 118.921875 82.128906 118.882812 84.253906 "/><path style=" stroke:none;fill-rule:nonzero;fill:#000000;fill-opacity:1;" d="M 120.699219 73.765625 L 120.644531 76.691406 C 120.613281 78.289062 119.390625 79.59375 117.792969 79.722656 L 116.773438 79.804688 C 115.902344 79.875 115.035156 79.574219 114.398438 78.976562 C 113.761719 78.378906 113.402344 77.535156 113.421875 76.660156 L 113.507812 71.996094 C 113.523438 71.152344 114.21875 70.484375 115.058594 70.5 C 115.902344 70.515625 116.570312 71.210938 116.554688 72.050781 L 116.46875 76.714844 C 116.46875 76.722656 116.46875 76.738281 116.484375 76.753906 C 116.503906 76.769531 116.515625 76.769531 116.523438 76.769531 L 117.546875 76.6875 C 117.574219 76.683594 117.59375 76.664062 117.59375 76.636719 L 117.648438 73.710938 C 117.664062 72.867188 118.359375 72.199219 119.203125 72.214844 C 120.042969 72.230469 120.714844 72.925781 120.699219 73.765625 "/><path style=" stroke:none;fill-rule:nonzero;fill:#000000;fill-opacity:1;" d="M 67.210938 100.789062 C 67.222656 100.785156 67.230469 100.785156 67.238281 100.78125 C 69.855469 100.246094 72.234375 98.125 74.304688 94.480469 C 75.757812 91.929688 76.527344 89.535156 76.558594 89.4375 C 76.8125 88.632812 76.371094 87.777344 75.566406 87.523438 C 74.765625 87.265625 73.90625 87.710938 73.652344 88.511719 C 72.902344 90.847656 70.183594 97.070312 66.625 97.796875 C 66.621094 97.796875 66.613281 97.800781 66.609375 97.800781 C 65.480469 98.027344 64.539062 97.855469 63.726562 97.273438 C 61.785156 95.882812 60.976562 92.480469 60.828125 91.289062 C 60.726562 90.453125 59.964844 89.859375 59.128906 89.964844 C 58.292969 90.066406 57.699219 90.828125 57.800781 91.664062 C 57.828125 91.890625 58.535156 97.300781 61.945312 99.75 C 63.464844 100.835938 65.234375 101.1875 67.210938 100.789062 "/><path style=" stroke:none;fill-rule:nonzero;fill:#000000;fill-opacity:1;" d="M 62.753906 85.582031 L 62.699219 88.507812 C 62.667969 90.105469 61.445312 91.40625 59.847656 91.535156 L 58.828125 91.621094 C 57.957031 91.691406 57.089844 91.386719 56.453125 90.789062 C 55.816406 90.191406 55.460938 89.347656 55.476562 88.472656 L 55.5625 83.808594 C 55.578125 82.964844 56.273438 82.296875 57.113281 82.3125 C 57.957031 82.328125 58.628906 83.023438 58.613281 83.863281 L 58.527344 88.53125 C 58.527344 88.539062 58.523438 88.554688 58.542969 88.570312 C 58.558594 88.585938 58.570312 88.582031 58.582031 88.582031 L 59.601562 88.5 C 59.628906 88.496094 59.648438 88.476562 59.648438 88.449219 L 59.703125 85.523438 C 59.71875 84.683594 60.414062 84.015625 61.257812 84.03125 C 62.097656 84.046875 62.769531 84.738281 62.753906 85.582031 "/><path style=" stroke:none;fill-rule:nonzero;fill:#ffffff;fill-opacity:1;" d="M 63.453125 65.796875 L 66.675781 65.796875 L 66.675781 56.789062 L 63.453125 56.789062 C 62.675781 56.789062 62.050781 57.417969 62.050781 58.191406 L 62.050781 64.394531 C 62.050781 65.167969 62.675781 65.796875 63.453125 65.796875 "/><path style=" stroke:none;fill-rule:nonzero;fill:#000000;fill-opacity:1;" d="M 66.414062 57.050781 C 64.136719 57.128906 62.308594 59 62.308594 61.292969 C 62.308594 63.585938 64.136719 65.457031 66.414062 65.535156 Z M 66.675781 66.058594 L 66.558594 66.058594 C 63.929688 66.058594 61.789062 63.921875 61.789062 61.292969 C 61.789062 58.664062 63.929688 56.527344 66.558594 56.527344 L 66.675781 56.527344 C 66.820312 56.527344 66.9375 56.644531 66.9375 56.789062 L 66.9375 65.796875 C 66.9375 65.941406 66.820312 66.058594 66.675781 66.058594 "/><path style=" stroke:none;fill-rule:nonzero;fill:#ffffff;fill-opacity:1;" d="M 110.625 65.796875 L 107.402344 65.796875 L 107.402344 56.789062 L 110.625 56.789062 C 111.402344 56.789062 112.03125 57.417969 112.03125 58.191406 L 112.03125 64.394531 C 112.03125 65.171875 111.402344 65.796875 110.625 65.796875 "/><path style=" stroke:none;fill-rule:nonzero;fill:#000000;fill-opacity:1;" d="M 107.664062 57.050781 L 107.664062 65.535156 C 109.941406 65.457031 111.769531 63.585938 111.769531 61.292969 C 111.769531 59 109.941406 57.128906 107.664062 57.050781 Z M 107.519531 66.058594 L 107.402344 66.058594 C 107.257812 66.058594 107.140625 65.941406 107.140625 65.796875 L 107.140625 56.789062 C 107.140625 56.644531 107.257812 56.527344 107.402344 56.527344 L 107.519531 56.527344 C 110.152344 56.527344 112.292969 58.664062 112.292969 61.292969 C 112.292969 63.921875 110.152344 66.058594 107.519531 66.058594 "/><path style=" stroke:none;fill-rule:nonzero;fill:#ffffff;fill-opacity:1;" d="M 108.859375 60.921875 C 108.859375 51.242188 99.089844 41.226562 87.039062 41.226562 C 74.988281 41.226562 65.21875 51.242188 65.21875 60.921875 C 65.21875 70.601562 74.988281 76.28125 87.039062 76.28125 C 99.089844 76.28125 108.859375 70.601562 108.859375 60.921875 "/><path style=" stroke:none;fill-rule:nonzero;fill:#000000;fill-opacity:1;" d="M 87.039062 41.488281 C 74.699219 41.488281 65.480469 51.746094 65.480469 60.921875 C 65.480469 65.445312 67.648438 69.28125 71.753906 72.015625 C 75.632812 74.597656 81.0625 76.019531 87.039062 76.019531 C 93.015625 76.019531 98.445312 74.597656 102.324219 72.015625 C 106.429688 69.28125 108.597656 65.445312 108.597656 60.921875 C 108.597656 51.746094 99.378906 41.488281 87.039062 41.488281 Z M 87.039062 76.542969 C 80.960938 76.542969 75.429688 75.089844 71.464844 72.449219 C 67.207031 69.613281 64.957031 65.625 64.957031 60.921875 C 64.957031 56.105469 67.316406 51.125 71.429688 47.253906 C 75.742188 43.199219 81.285156 40.96875 87.039062 40.96875 C 92.792969 40.96875 98.335938 43.199219 102.648438 47.253906 C 106.761719 51.125 109.121094 56.105469 109.121094 60.921875 C 109.121094 65.625 106.871094 69.613281 102.613281 72.449219 C 98.648438 75.089844 93.117188 76.542969 87.039062 76.542969 "/><path style=" stroke:none;fill-rule:nonzero;fill:#ffffff;fill-opacity:1;" d="M 81.574219 79.191406 L 92.503906 79.191406 C 97.296875 79.191406 101.179688 83.070312 101.179688 87.855469 C 101.179688 91.015625 100.871094 94.167969 100.257812 97.269531 L 98.6875 105.21875 C 97.589844 110.777344 92.710938 114.78125 87.039062 114.78125 C 81.367188 114.78125 76.488281 110.777344 75.390625 105.21875 L 73.820312 97.269531 C 73.207031 94.167969 72.898438 91.015625 72.898438 87.855469 C 72.898438 83.070312 76.78125 79.191406 81.574219 79.191406 "/><path style=" stroke:none;fill-rule:nonzero;fill:#000000;fill-opacity:1;" d="M 81.574219 79.449219 C 76.933594 79.449219 73.160156 83.222656 73.160156 87.855469 C 73.160156 90.992188 73.46875 94.144531 74.078125 97.21875 L 75.648438 105.167969 C 76.71875 110.585938 81.511719 114.519531 87.039062 114.519531 C 92.570312 114.519531 97.359375 110.585938 98.429688 105.167969 L 100 97.21875 C 100.609375 94.144531 100.917969 90.992188 100.917969 87.855469 C 100.917969 83.222656 97.144531 79.449219 92.503906 79.449219 Z M 87.039062 115.042969 C 81.261719 115.042969 76.253906 110.933594 75.136719 105.269531 L 73.5625 97.320312 C 72.949219 94.210938 72.636719 91.023438 72.636719 87.855469 C 72.636719 82.933594 76.644531 78.929688 81.574219 78.929688 L 92.503906 78.929688 C 97.433594 78.929688 101.441406 82.933594 101.441406 87.855469 C 101.441406 91.023438 101.128906 94.210938 100.515625 97.320312 L 98.941406 105.269531 C 97.824219 110.933594 92.816406 115.042969 87.039062 115.042969 "/><path style=" stroke:none;fill-rule:nonzero;fill:#5479f7;fill-opacity:1;" d="M 87.039062 98.386719 C 90.324219 98.386719 92.988281 95.726562 92.988281 92.445312 L 92.988281 79.191406 L 81.089844 79.191406 L 81.089844 92.445312 C 81.089844 95.726562 83.753906 98.386719 87.039062 98.386719 "/><path style=" stroke:none;fill-rule:nonzero;fill:#000000;fill-opacity:1;" d="M 92.988281 79.449219 L 81.089844 79.449219 C 80.945312 79.449219 80.828125 79.332031 80.828125 79.191406 C 80.828125 79.046875 80.945312 78.929688 81.089844 78.929688 L 92.988281 78.929688 C 93.132812 78.929688 93.25 79.046875 93.25 79.191406 C 93.25 79.332031 93.132812 79.449219 92.988281 79.449219 "/><path style=" stroke:none;fill-rule:nonzero;fill:#000000;fill-opacity:1;" d="M 72.371094 58.015625 L 93.382812 58.015625 C 95.5625 58.015625 97.335938 59.921875 97.335938 62.269531 L 97.335938 65.042969 C 97.335938 66.835938 96.375 68.734375 94.726562 69.046875 C 88.902344 70.136719 76.847656 70.136719 71.027344 69.046875 C 69.375 68.734375 68.417969 66.835938 68.417969 65.042969 L 68.417969 62.269531 C 68.417969 59.921875 70.1875 58.015625 72.371094 58.015625 "/><path style=" stroke:none;fill-rule:nonzero;fill:#5479f7;fill-opacity:1;" d="M 87.8125 63.601562 C 87.8125 64.386719 88.40625 65.027344 89.136719 65.027344 C 89.867188 65.027344 90.460938 64.386719 90.460938 63.601562 C 90.460938 62.8125 89.867188 62.175781 89.136719 62.175781 C 88.40625 62.175781 87.8125 62.8125 87.8125 63.601562 "/><path style=" stroke:none;fill-rule:nonzero;fill:#5479f7;fill-opacity:1;" d="M 73.726562 63.601562 C 73.726562 64.386719 74.316406 65.027344 75.050781 65.027344 C 75.78125 65.027344 76.375 64.386719 76.375 63.601562 C 76.375 62.8125 75.78125 62.175781 75.050781 62.175781 C 74.316406 62.175781 73.726562 62.8125 73.726562 63.601562 "/><path style=" stroke:none;fill-rule:nonzero;fill:#ffffff;fill-opacity:1;" d="M 23.695312 133.9375 L 23.535156 139.917969 L 21.421875 140.148438 L 20.375 133.710938 L 23.695312 133.9375 "/><path style=" stroke:none;fill-rule:nonzero;fill:#000000;fill-opacity:1;" d="M 20.6875 133.992188 L 21.640625 139.859375 L 23.28125 139.683594 L 23.429688 134.179688 Z M 21.421875 140.40625 C 21.292969 140.40625 21.183594 140.316406 21.164062 140.1875 L 20.117188 133.753906 C 20.105469 133.671875 20.128906 133.59375 20.183594 133.535156 C 20.234375 133.476562 20.3125 133.445312 20.394531 133.449219 L 23.714844 133.675781 C 23.855469 133.6875 23.960938 133.804688 23.957031 133.945312 L 23.796875 139.925781 C 23.792969 140.054688 23.695312 140.164062 23.5625 140.175781 L 21.449219 140.40625 C 21.441406 140.40625 21.429688 140.40625 21.421875 140.40625 "/><path style=" stroke:none;fill-rule:nonzero;fill:#ffffff;fill-opacity:1;" d="M 35.699219 135.902344 L 36.035156 140.664062 L 33.242188 140.894531 L 32.242188 135.902344 L 35.699219 135.902344 "/><path style=" stroke:none;fill-rule:nonzero;fill:#000000;fill-opacity:1;" d="M 32.5625 136.164062 L 33.449219 140.613281 L 35.757812 140.425781 L 35.453125 136.164062 Z M 33.242188 141.152344 C 33.117188 141.152344 33.007812 141.066406 32.984375 140.945312 L 31.988281 135.953125 C 31.972656 135.875 31.992188 135.796875 32.042969 135.734375 C 32.089844 135.675781 32.164062 135.640625 32.242188 135.640625 L 35.699219 135.640625 C 35.835938 135.640625 35.949219 135.746094 35.957031 135.882812 L 36.296875 140.644531 C 36.304688 140.789062 36.199219 140.914062 36.058594 140.925781 L 33.261719 141.152344 C 33.253906 141.152344 33.246094 141.152344 33.242188 141.152344 "/><path style=" stroke:none;fill-rule:nonzero;fill:#5479f7;fill-opacity:1;" d="M 32.492188 142.945312 C 32.300781 142.816406 32.183594 142.597656 32.175781 142.367188 C 32.15625 141.667969 32.15625 140.179688 32.4375 139.621094 C 32.8125 138.878906 34.355469 139.910156 34.355469 139.910156 C 34.355469 139.910156 35.261719 138.660156 35.792969 138.394531 C 36.066406 138.261719 37.667969 139.328125 39.285156 140.78125 C 41.058594 142.371094 41.855469 142.882812 42.238281 144.253906 C 42.417969 144.898438 41.945312 145.546875 41.277344 145.59375 C 39.648438 145.710938 36.363281 145.515625 32.492188 142.945312 "/><path style=" stroke:none;fill-rule:nonzero;fill:#000000;fill-opacity:1;" d="M 32.933594 139.609375 C 32.886719 139.609375 32.847656 139.617188 32.808594 139.625 C 32.742188 139.644531 32.703125 139.675781 32.671875 139.738281 C 32.492188 140.09375 32.402344 141.074219 32.4375 142.359375 C 32.441406 142.507812 32.515625 142.644531 32.636719 142.726562 C 36.449219 145.257812 39.675781 145.445312 41.257812 145.335938 C 41.503906 145.316406 41.726562 145.191406 41.867188 144.988281 C 42.007812 144.792969 42.050781 144.550781 41.988281 144.324219 C 41.6875 143.242188 41.121094 142.746094 39.882812 141.65625 C 39.648438 141.449219 39.390625 141.226562 39.109375 140.972656 C 37.472656 139.503906 36.167969 138.699219 35.875 138.648438 C 35.523438 138.851562 34.894531 139.617188 34.570312 140.0625 C 34.488281 140.179688 34.328125 140.207031 34.210938 140.128906 C 33.890625 139.914062 33.296875 139.609375 32.933594 139.609375 Z M 40.5625 145.882812 C 38.753906 145.882812 35.773438 145.4375 32.347656 143.164062 C 32.085938 142.988281 31.921875 142.691406 31.914062 142.375 C 31.886719 141.378906 31.917969 140.070312 32.203125 139.5 C 32.300781 139.308594 32.464844 139.175781 32.675781 139.121094 C 33.195312 138.984375 33.925781 139.351562 34.289062 139.5625 C 34.582031 139.183594 35.21875 138.390625 35.675781 138.164062 C 36.371094 137.816406 39.335938 140.472656 39.460938 140.585938 C 39.738281 140.835938 39.992188 141.058594 40.226562 141.265625 C 41.464844 142.355469 42.148438 142.953125 42.492188 144.183594 C 42.597656 144.5625 42.523438 144.964844 42.296875 145.289062 C 42.0625 145.621094 41.695312 145.828125 41.292969 145.855469 C 41.078125 145.871094 40.832031 145.882812 40.5625 145.882812 "/><path style=" stroke:none;fill-rule:nonzero;fill:#000000;fill-opacity:1;" d="M 39.75 144.605469 C 38.046875 144.605469 35.304688 144.191406 32.601562 142.035156 C 32.488281 141.945312 32.46875 141.78125 32.558594 141.667969 C 32.648438 141.558594 32.816406 141.539062 32.925781 141.628906 C 37.019531 144.890625 41.3125 143.945312 41.355469 143.9375 C 41.496094 143.902344 41.636719 143.992188 41.667969 144.132812 C 41.703125 144.273438 41.613281 144.410156 41.472656 144.445312 C 41.40625 144.460938 40.757812 144.605469 39.75 144.605469 "/><path style=" stroke:none;fill-rule:nonzero;fill:#5479f7;fill-opacity:1;" d="M 24.53125 141.371094 L 24.5 138.097656 C 24.5 138.097656 23.84375 137.105469 22.941406 137.910156 C 22.941406 137.910156 22.109375 136.746094 20.5625 138.199219 C 20.5625 138.199219 18.386719 142.25 17.421875 144.660156 C 17.164062 145.308594 17.625 146.015625 18.320312 146.03125 C 19.320312 146.054688 20.613281 146 21.175781 145.621094 C 22.054688 145.027344 23.558594 143.152344 24.214844 142.308594 C 24.425781 142.042969 24.535156 141.710938 24.53125 141.371094 "/><path style=" stroke:none;fill-rule:nonzero;fill:#000000;fill-opacity:1;" d="M 20.773438 138.363281 C 20.550781 138.777344 18.5625 142.511719 17.667969 144.757812 C 17.574219 144.988281 17.601562 145.238281 17.734375 145.441406 C 17.871094 145.644531 18.085938 145.765625 18.328125 145.769531 C 19.671875 145.800781 20.632812 145.671875 21.027344 145.402344 C 21.882812 144.824219 23.398438 142.9375 24.007812 142.148438 C 24.179688 141.929688 24.273438 141.65625 24.269531 141.375 L 24.242188 138.1875 C 24.160156 138.089844 23.96875 137.890625 23.71875 137.859375 C 23.527344 137.835938 23.324219 137.921875 23.117188 138.105469 C 23.0625 138.15625 22.988281 138.179688 22.914062 138.171875 C 22.839844 138.164062 22.773438 138.125 22.730469 138.0625 C 22.722656 138.054688 22.507812 137.769531 22.105469 137.734375 C 21.714844 137.699219 21.257812 137.917969 20.773438 138.363281 Z M 18.71875 146.296875 C 18.589844 146.296875 18.453125 146.292969 18.316406 146.289062 C 17.90625 146.28125 17.527344 146.070312 17.300781 145.730469 C 17.070312 145.386719 17.027344 144.949219 17.179688 144.566406 C 18.136719 142.167969 20.3125 138.117188 20.332031 138.078125 C 20.347656 138.050781 20.363281 138.027344 20.382812 138.011719 C 21.003906 137.425781 21.605469 137.160156 22.164062 137.214844 C 22.535156 137.25 22.804688 137.421875 22.964844 137.5625 C 23.234375 137.382812 23.507812 137.308594 23.789062 137.34375 C 24.359375 137.417969 24.707031 137.933594 24.71875 137.953125 C 24.746094 137.996094 24.761719 138.046875 24.761719 138.09375 L 24.792969 141.371094 C 24.796875 141.765625 24.664062 142.15625 24.421875 142.46875 C 23.644531 143.472656 22.207031 145.238281 21.320312 145.835938 C 20.867188 146.140625 19.996094 146.296875 18.71875 146.296875 "/><path style=" stroke:none;fill-rule:nonzero;fill:#000000;fill-opacity:1;" d="M 22.945312 139.9375 C 22.800781 139.9375 22.683594 139.820312 22.683594 139.675781 L 22.683594 137.910156 C 22.683594 137.769531 22.796875 137.652344 22.941406 137.652344 C 23.085938 137.652344 23.203125 137.769531 23.203125 137.910156 L 23.207031 139.675781 C 23.207031 139.820312 23.089844 139.9375 22.945312 139.9375 "/><path style=" stroke:none;fill-rule:nonzero;fill:#000000;fill-opacity:1;" d="M 36.546875 136.171875 C 36.546875 136.171875 37.34375 124.148438 36.035156 113.332031 C 34.726562 102.515625 29.859375 87.070312 29.859375 87.070312 C 29.859375 87.070312 24.621094 86.835938 20.8125 87.347656 C 17 87.859375 15.492188 87.332031 15.492188 87.332031 C 15.492188 87.332031 12.644531 90.585938 12.878906 96.703125 C 13.109375 102.820312 19.75 128.628906 19.5 134.683594 C 19.5 134.683594 21.730469 135.804688 24.625 135.25 L 23.425781 100.46875 C 23.425781 100.46875 25.90625 107.628906 27.070312 112.535156 C 28.019531 116.53125 29.664062 119.117188 29.664062 119.117188 C 29.664062 119.117188 29.597656 128.414062 31.730469 136.128906 C 31.730469 136.128906 34.253906 136.917969 36.546875 136.171875 "/><path style=" stroke:none;fill-rule:nonzero;fill:#ffffff;fill-opacity:1;" d="M 32.359375 123.367188 C 32.277344 123.367188 32.195312 123.328125 32.144531 123.257812 L 30.316406 120.597656 C 30.234375 120.480469 30.265625 120.316406 30.382812 120.234375 C 30.503906 120.152344 30.664062 120.183594 30.746094 120.304688 L 32.574219 122.960938 C 32.65625 123.078125 32.625 123.242188 32.507812 123.324219 C 32.460938 123.355469 32.410156 123.367188 32.359375 123.367188 "/><path style=" stroke:none;fill-rule:nonzero;fill:#ffffff;fill-opacity:1;" d="M 20.0625 116.90625 C 19.410156 116.90625 18.582031 116.78125 17.886719 116.265625 C 17.773438 116.179688 17.75 116.015625 17.835938 115.902344 C 17.921875 115.785156 18.082031 115.761719 18.199219 115.847656 C 19.34375 116.695312 21.027344 116.285156 21.042969 116.28125 C 21.183594 116.242188 21.324219 116.328125 21.359375 116.46875 C 21.394531 116.609375 21.3125 116.75 21.171875 116.785156 C 21.132812 116.796875 20.675781 116.90625 20.0625 116.90625 "/><path style=" stroke:none;fill-rule:nonzero;fill:#ffffff;fill-opacity:1;" d="M 49.300781 56.367188 L 50.910156 54.820312 C 50.910156 54.820312 51.664062 55.414062 50.507812 56.8125 C 50.824219 56.824219 51.152344 56.84375 51.679688 56.882812 C 52.105469 56.910156 52.527344 56.800781 52.851562 56.515625 C 53.226562 56.179688 53.695312 55.777344 53.867188 55.667969 C 54.175781 55.472656 54.578125 55.164062 54.992188 55.171875 C 55.089844 55.171875 55.1875 55.191406 55.28125 55.21875 C 55.578125 55.3125 55.6875 55.675781 55.5 55.925781 L 54.363281 57.410156 C 53.765625 58.195312 52.9375 58.761719 52.003906 59.027344 L 50.519531 59.449219 C 49.671875 59.691406 49.046875 60.4375 48.941406 61.339844 L 47.40625 73.59375 C 47.246094 74.890625 45.980469 75.75 44.714844 75.425781 L 32.082031 72.507812 L 32.570312 64.859375 L 41.1875 69.15625 C 42.265625 69.652344 43.539062 69.117188 43.9375 68 C 44.789062 65.601562 46.210938 61.691406 47.253906 59.296875 C 47.734375 58.195312 48.433594 57.199219 49.300781 56.367188 "/><path style=" stroke:none;fill-rule:nonzero;fill:#000000;fill-opacity:1;" d="M 32.355469 72.300781 L 44.773438 75.171875 C 45.3125 75.308594 45.875 75.210938 46.328125 74.902344 C 46.78125 74.59375 47.078125 74.105469 47.148438 73.5625 L 48.683594 61.308594 C 48.800781 60.296875 49.492188 59.46875 50.445312 59.199219 L 51.933594 58.773438 C 52.820312 58.523438 53.585938 57.996094 54.15625 57.253906 L 55.292969 55.765625 C 55.347656 55.691406 55.332031 55.617188 55.320312 55.589844 C 55.3125 55.554688 55.28125 55.492188 55.203125 55.46875 C 55.125 55.445312 55.054688 55.433594 54.988281 55.429688 C 54.710938 55.429688 54.410156 55.625 54.144531 55.796875 C 54.097656 55.828125 54.050781 55.859375 54.007812 55.886719 C 53.9375 55.933594 53.710938 56.101562 53.023438 56.710938 C 52.667969 57.023438 52.183594 57.179688 51.660156 57.140625 C 51.132812 57.105469 50.804688 57.082031 50.5 57.070312 C 50.398438 57.070312 50.308594 57.011719 50.269531 56.917969 C 50.226562 56.828125 50.242188 56.722656 50.304688 56.644531 C 50.914062 55.914062 50.933594 55.464844 50.863281 55.226562 L 49.480469 56.554688 C 48.628906 57.371094 47.960938 58.332031 47.496094 59.402344 C 46.433594 61.835938 44.964844 65.886719 44.183594 68.085938 C 43.96875 68.6875 43.507812 69.175781 42.917969 69.421875 C 42.328125 69.671875 41.660156 69.660156 41.078125 69.390625 L 32.804688 65.269531 Z M 45.253906 75.753906 C 45.054688 75.753906 44.851562 75.730469 44.652344 75.679688 L 32.023438 72.761719 C 31.898438 72.730469 31.8125 72.617188 31.820312 72.488281 L 32.308594 64.84375 C 32.316406 64.753906 32.363281 64.675781 32.441406 64.632812 C 32.515625 64.589844 32.609375 64.585938 32.6875 64.625 L 41.304688 68.921875 C 41.75 69.128906 42.253906 69.136719 42.714844 68.941406 C 43.175781 68.75 43.523438 68.382812 43.691406 67.910156 C 44.472656 65.707031 45.949219 61.640625 47.015625 59.191406 C 47.507812 58.058594 48.214844 57.042969 49.117188 56.175781 L 50.726562 54.632812 C 50.820312 54.542969 50.96875 54.535156 51.070312 54.613281 C 51.101562 54.636719 51.359375 54.855469 51.40625 55.292969 C 51.445312 55.679688 51.3125 56.109375 51.007812 56.574219 C 51.203125 56.585938 51.421875 56.601562 51.699219 56.621094 C 52.078125 56.648438 52.425781 56.539062 52.675781 56.320312 C 53.5 55.589844 53.671875 55.480469 53.730469 55.445312 C 53.769531 55.417969 53.8125 55.390625 53.859375 55.363281 C 54.171875 55.15625 54.554688 54.902344 54.996094 54.910156 C 55.109375 54.910156 55.234375 54.933594 55.359375 54.96875 C 55.578125 55.039062 55.75 55.210938 55.820312 55.429688 C 55.890625 55.652344 55.847656 55.898438 55.707031 56.082031 L 54.570312 57.570312 C 53.933594 58.402344 53.070312 58.996094 52.078125 59.277344 L 50.589844 59.699219 C 49.839844 59.914062 49.292969 60.566406 49.203125 61.371094 L 47.667969 73.628906 C 47.578125 74.320312 47.199219 74.941406 46.621094 75.332031 C 46.214844 75.609375 45.738281 75.753906 45.253906 75.753906 "/><path style=" stroke:none;fill-rule:nonzero;fill:#5479f7;fill-opacity:1;" d="M 13.433594 69.175781 C 13.957031 66.304688 15.039062 64.359375 18.730469 62.796875 C 20.753906 61.9375 23.21875 61.757812 26.945312 62.113281 C 29.667969 62.378906 36.628906 64.800781 39.398438 67.390625 C 39.578125 67.558594 35.890625 74.320312 35.890625 74.320312 L 33.652344 74.03125 L 34.140625 88.160156 C 34.167969 88.980469 33.6875 89.730469 32.929688 90.046875 C 31.15625 90.78125 27.070312 91.429688 18.160156 89.21875 C 18.160156 89.21875 14.183594 87.632812 12.8125 93.785156 C 12.8125 93.785156 9.972656 93.4375 10.003906 90.351562 C 10.027344 88.0625 12.269531 75.523438 13.433594 69.175781 "/><path style=" stroke:none;fill-rule:nonzero;fill:#caddff;fill-opacity:1;" d="M 17.222656 75.238281 L 16.257812 75.238281 C 16.113281 75.238281 15.996094 75.121094 15.996094 74.976562 C 15.996094 74.832031 16.113281 74.714844 16.257812 74.714844 L 17.039062 74.714844 L 18.46875 70.878906 C 18.519531 70.742188 18.671875 70.671875 18.804688 70.722656 C 18.941406 70.773438 19.011719 70.921875 18.960938 71.058594 L 17.464844 75.066406 C 17.429688 75.171875 17.332031 75.238281 17.222656 75.238281 "/><path style=" stroke:none;fill-rule:nonzero;fill:#5479f7;fill-opacity:1;" d="M 15.25 74.820312 C 15.25 74.820312 8.664062 74.792969 8.660156 74.722656 C 8.652344 74.488281 11.113281 64.769531 20.246094 62.320312 L 15.25 74.820312 "/><path style=" stroke:none;fill-rule:nonzero;fill:#ffffff;fill-opacity:1;" d="M 15.796875 74.785156 C 15.796875 74.785156 11.628906 85.15625 11.289062 85.875 C 11.289062 85.875 9.574219 89.609375 9.976562 91.335938 C 10.230469 92.421875 10.136719 94.527344 8.699219 95.9375 C 8.398438 96.230469 7.894531 95.9375 8 95.53125 C 8.003906 95.527344 8.003906 95.519531 8.007812 95.511719 C 8.171875 94.9375 8.507812 94.183594 8.507812 94.183594 C 8.507812 94.183594 7.621094 94.339844 6.8125 95.226562 C 6.003906 96.113281 4.246094 97.757812 3.765625 97.382812 C 2.9375 96.742188 2.820312 93.472656 6.078125 90.835938 C 6.882812 90.183594 7.167969 89.71875 7.359375 88.832031 C 7.359375 88.832031 8.328125 82.699219 9.15625 78.820312 C 9.375 77.800781 9.605469 76.738281 9.84375 74.6875 L 15.796875 74.785156 "/><path style=" stroke:none;fill-rule:nonzero;fill:#000000;fill-opacity:1;" d="M 10.074219 74.953125 C 9.855469 76.789062 9.640625 77.792969 9.433594 78.765625 L 9.410156 78.875 C 8.597656 82.703125 7.625 88.808594 7.617188 88.871094 C 7.40625 89.851562 7.085938 90.351562 6.242188 91.039062 C 3.699219 93.097656 3.527344 95.292969 3.53125 95.917969 C 3.539062 96.628906 3.75 97.039062 3.925781 97.175781 C 4.179688 97.269531 5.441406 96.347656 6.621094 95.050781 C 7.476562 94.109375 8.421875 93.933594 8.464844 93.925781 C 8.558594 93.910156 8.65625 93.949219 8.714844 94.023438 C 8.773438 94.101562 8.785156 94.203125 8.746094 94.292969 C 8.742188 94.296875 8.414062 95.03125 8.257812 95.585938 C 8.226562 95.699219 8.296875 95.753906 8.328125 95.769531 C 8.359375 95.789062 8.441406 95.824219 8.515625 95.75 C 9.945312 94.351562 9.929688 92.289062 9.722656 91.394531 C 9.304688 89.601562 10.980469 85.921875 11.050781 85.765625 C 11.347656 85.136719 14.679688 76.863281 15.414062 75.039062 Z M 3.925781 97.691406 C 3.804688 97.691406 3.695312 97.65625 3.605469 97.589844 C 3.242188 97.308594 3.019531 96.683594 3.011719 95.925781 C 3.003906 95.242188 3.1875 92.839844 5.914062 90.632812 C 6.65625 90.03125 6.921875 89.613281 7.101562 88.777344 C 7.109375 88.726562 8.082031 82.605469 8.898438 78.765625 L 8.921875 78.65625 C 9.136719 77.65625 9.359375 76.621094 9.582031 74.660156 C 9.597656 74.523438 9.714844 74.421875 9.847656 74.425781 L 15.800781 74.523438 C 15.886719 74.527344 15.96875 74.570312 16.015625 74.640625 C 16.0625 74.710938 16.074219 74.804688 16.039062 74.882812 C 15.871094 75.308594 11.863281 85.269531 11.523438 85.984375 C 11.511719 86.019531 9.855469 89.65625 10.230469 91.277344 C 10.460938 92.269531 10.476562 94.5625 8.882812 96.121094 C 8.664062 96.335938 8.332031 96.378906 8.066406 96.222656 C 7.796875 96.066406 7.671875 95.761719 7.75 95.464844 C 7.75 95.464844 7.753906 95.449219 7.753906 95.449219 C 7.828125 95.179688 7.941406 94.878906 8.039062 94.625 C 7.746094 94.765625 7.367188 95.007812 7.007812 95.402344 C 6.625 95.820312 4.871094 97.691406 3.925781 97.691406 "/><path style=" stroke:none;fill-rule:nonzero;fill:#000000;fill-opacity:1;" d="M 22.890625 47.769531 C 21.507812 48.761719 22.210938 49.738281 20.367188 52.101562 C 19.015625 53.839844 17.9375 54.210938 17.890625 55.40625 C 17.851562 56.484375 18.679688 57.316406 19.230469 57.863281 C 21.71875 60.359375 25.386719 60.363281 27.640625 60.367188 C 29.460938 60.367188 31.957031 60.367188 32.375 59.257812 C 32.789062 58.160156 30.699219 57.242188 30.660156 55.019531 C 30.628906 53.230469 31.964844 52.824219 31.78125 51.226562 C 31.542969 49.160156 29.089844 47.949219 28.695312 47.753906 C 27.117188 46.976562 24.585938 46.550781 22.890625 47.769531 "/><path style=" stroke:none;fill-rule:nonzero;fill:#000000;fill-opacity:1;" d="M 24.410156 47.683594 C 24.410156 47.683594 25.515625 44.367188 22.65625 43.917969 C 19.800781 43.46875 20.824219 47.214844 22.554688 48.371094 C 24.28125 49.527344 24.410156 47.683594 24.410156 47.683594 "/><path style=" stroke:none;fill-rule:nonzero;fill:#ffffff;fill-opacity:1;" d="M 22.644531 61.9375 L 24.863281 56.183594 C 24.863281 56.183594 24.984375 55.859375 24.859375 55.734375 C 24.535156 55.40625 24.011719 54.746094 24.15625 53.988281 C 24.226562 53.605469 24.5 53.046875 24.871094 53.03125 C 25.132812 53.019531 25.429688 53.277344 25.617188 53.722656 C 25.71875 53.957031 26.042969 53.988281 26.183594 53.773438 C 26.1875 53.773438 26.1875 53.769531 26.191406 53.765625 C 26.328125 53.554688 26.464844 53.316406 26.523438 53.117188 C 26.5625 52.984375 26.683594 52.890625 26.824219 52.886719 C 29.664062 52.835938 28.207031 49.425781 30.042969 49.914062 C 30.113281 49.933594 30.203125 50 30.242188 50.058594 C 30.492188 50.433594 30.675781 50.601562 30.875 50.980469 C 31.292969 51.769531 31.277344 53.628906 32.09375 54.445312 C 32.1875 54.539062 32.226562 54.679688 32.175781 54.800781 C 32.046875 55.113281 31.757812 55.15625 31.519531 55.285156 C 31.421875 55.335938 31.363281 55.4375 31.363281 55.546875 C 31.351562 55.996094 31.199219 57.039062 31.144531 57.839844 C 31.109375 58.339844 30.691406 58.726562 30.1875 58.722656 C 29.789062 58.722656 29.371094 58.675781 28.933594 58.578125 C 28.84375 58.558594 28.753906 58.574219 28.679688 58.625 C 28.34375 58.84375 28 61.335938 27.835938 62.695312 C 27.765625 63.261719 27.328125 63.71875 26.757812 63.800781 C 26.578125 63.828125 25.78125 63.976562 25.070312 63.996094 C 22.820312 64.0625 22.328125 62.753906 22.644531 61.9375 "/><path style=" stroke:none;fill-rule:nonzero;fill:#000000;fill-opacity:1;" d="M 22.644531 61.9375 Z M 24.886719 53.292969 C 24.886719 53.292969 24.882812 53.292969 24.882812 53.292969 C 24.714844 53.300781 24.480469 53.667969 24.410156 54.035156 C 24.289062 54.675781 24.753906 55.257812 25.042969 55.550781 C 25.269531 55.773438 25.148438 56.160156 25.105469 56.273438 L 22.886719 62.03125 C 22.761719 62.363281 22.8125 62.738281 23.023438 63.035156 C 23.363281 63.515625 24.085938 63.765625 25.0625 63.734375 C 25.648438 63.71875 26.3125 63.609375 26.59375 63.566406 C 26.648438 63.554688 26.691406 63.546875 26.722656 63.542969 C 27.167969 63.476562 27.519531 63.117188 27.574219 62.664062 C 28.054688 58.722656 28.378906 58.507812 28.535156 58.40625 C 28.667969 58.316406 28.832031 58.289062 28.988281 58.324219 C 29.398438 58.417969 29.800781 58.464844 30.1875 58.464844 C 30.554688 58.464844 30.859375 58.183594 30.882812 57.820312 C 30.910156 57.433594 30.960938 56.984375 31.003906 56.585938 C 31.050781 56.164062 31.09375 55.761719 31.101562 55.539062 C 31.105469 55.335938 31.21875 55.148438 31.394531 55.054688 C 31.460938 55.019531 31.527344 54.992188 31.59375 54.960938 C 31.78125 54.882812 31.878906 54.835938 31.933594 54.703125 C 31.941406 54.683594 31.929688 54.652344 31.910156 54.628906 C 31.351562 54.074219 31.15625 53.132812 30.980469 52.300781 C 30.882812 51.824219 30.789062 51.371094 30.644531 51.101562 C 30.53125 50.890625 30.421875 50.746094 30.296875 50.582031 C 30.21875 50.476562 30.125 50.355469 30.027344 50.203125 C 30.019531 50.195312 29.988281 50.171875 29.972656 50.167969 C 29.769531 50.113281 29.621094 50.113281 29.519531 50.175781 C 29.320312 50.289062 29.222656 50.660156 29.121094 51.050781 C 28.890625 51.921875 28.574219 53.117188 26.828125 53.148438 C 26.804688 53.148438 26.78125 53.167969 26.773438 53.1875 C 26.71875 53.386719 26.59375 53.628906 26.40625 53.910156 C 26.285156 54.097656 26.078125 54.195312 25.863281 54.175781 C 25.648438 54.15625 25.460938 54.019531 25.378906 53.824219 C 25.230469 53.476562 25.015625 53.292969 24.886719 53.292969 Z M 24.90625 64.261719 C 23.542969 64.261719 22.898438 63.761719 22.597656 63.335938 C 22.285156 62.894531 22.210938 62.335938 22.402344 61.84375 L 24.617188 56.089844 C 24.640625 56.027344 24.65625 55.9375 24.652344 55.898438 C 24.292969 55.527344 23.734375 54.796875 23.898438 53.9375 C 23.984375 53.480469 24.3125 52.796875 24.859375 52.769531 C 25.246094 52.753906 25.628906 53.078125 25.859375 53.621094 C 25.871094 53.648438 25.894531 53.65625 25.910156 53.65625 C 25.929688 53.65625 25.953125 53.652344 25.96875 53.628906 C 26.167969 53.328125 26.242188 53.144531 26.273438 53.042969 C 26.34375 52.804688 26.566406 52.632812 26.816406 52.628906 C 28.167969 52.601562 28.394531 51.746094 28.613281 50.917969 C 28.746094 50.417969 28.871094 49.945312 29.253906 49.722656 C 29.484375 49.589844 29.765625 49.570312 30.109375 49.664062 C 30.242188 49.699219 30.386719 49.800781 30.460938 49.914062 C 30.554688 50.050781 30.636719 50.160156 30.714844 50.265625 C 30.847656 50.441406 30.972656 50.609375 31.105469 50.859375 C 31.285156 51.195312 31.386719 51.679688 31.492188 52.191406 C 31.652344 52.953125 31.832031 53.8125 32.277344 54.261719 C 32.453125 54.433594 32.507812 54.6875 32.417969 54.902344 C 32.277344 55.238281 32 55.355469 31.800781 55.441406 C 31.746094 55.464844 31.691406 55.488281 31.644531 55.515625 C 31.632812 55.519531 31.625 55.535156 31.625 55.554688 C 31.617188 55.796875 31.574219 56.191406 31.523438 56.644531 C 31.480469 57.035156 31.429688 57.480469 31.40625 57.855469 C 31.359375 58.492188 30.824219 58.984375 30.1875 58.984375 C 29.761719 58.984375 29.320312 58.933594 28.875 58.832031 C 28.867188 58.832031 28.847656 58.828125 28.832031 58.835938 C 28.6875 59.023438 28.40625 60.144531 28.09375 62.726562 C 28.011719 63.410156 27.476562 63.960938 26.796875 64.058594 C 26.769531 64.0625 26.730469 64.070312 26.679688 64.078125 C 26.386719 64.128906 25.699219 64.238281 25.078125 64.257812 C 25.019531 64.257812 24.960938 64.261719 24.90625 64.261719 "/><path style=" stroke:none;fill-rule:nonzero;fill:#000000;fill-opacity:1;" d="M 28.933594 58.839844 C 28.914062 58.839844 28.898438 58.839844 28.878906 58.835938 C 27.410156 58.53125 26.515625 57.453125 26.480469 57.40625 C 26.386719 57.292969 26.40625 57.128906 26.515625 57.039062 C 26.628906 56.949219 26.792969 56.964844 26.882812 57.078125 C 26.894531 57.085938 27.703125 58.0625 28.984375 58.324219 C 29.125 58.351562 29.21875 58.492188 29.1875 58.632812 C 29.164062 58.753906 29.054688 58.839844 28.933594 58.839844 "/><path style=" stroke:none;fill-rule:nonzero;fill:#000000;fill-opacity:1;" d="M 13.964844 125.046875 C 13.890625 125.046875 13.816406 125.015625 13.765625 124.953125 C 10.484375 121.089844 8.382812 116.519531 7.511719 111.371094 C 7.488281 111.230469 7.582031 111.09375 7.726562 111.070312 C 7.867188 111.046875 8.003906 111.144531 8.027344 111.285156 C 8.882812 116.339844 10.945312 120.824219 14.164062 124.617188 C 14.257812 124.726562 14.246094 124.890625 14.132812 124.984375 C 14.085938 125.023438 14.023438 125.046875 13.964844 125.046875 "/><path style=" stroke:none;fill-rule:nonzero;fill:#000000;fill-opacity:1;" d="M 12.617188 127.972656 C 12.546875 127.972656 12.476562 127.945312 12.425781 127.890625 C 8.832031 124.113281 4.527344 117.832031 4.4375 109.390625 C 4.4375 109.246094 4.554688 109.128906 4.699219 109.125 C 4.835938 109.125 4.960938 109.242188 4.960938 109.386719 C 5.046875 117.65625 9.273438 123.820312 12.804688 127.53125 C 12.902344 127.636719 12.898438 127.800781 12.796875 127.902344 C 12.746094 127.949219 12.679688 127.972656 12.617188 127.972656 "/><path style=" stroke:none;fill-rule:nonzero;fill:#000000;fill-opacity:1;" d="M 134.738281 82.8125 C 134.714844 82.8125 134.6875 82.808594 134.664062 82.800781 C 134.523438 82.757812 134.449219 82.613281 134.488281 82.472656 C 137.195312 73.671875 137.234375 65.207031 134.605469 57.304688 C 134.558594 57.167969 134.632812 57.023438 134.769531 56.976562 C 134.90625 56.929688 135.054688 57.003906 135.101562 57.140625 C 137.765625 65.144531 137.726562 73.71875 134.988281 82.628906 C 134.953125 82.738281 134.851562 82.8125 134.738281 82.8125 "/><path style=" stroke:none;fill-rule:nonzero;fill:#000000;fill-opacity:1;" d="M 135.710938 86.328125 C 135.675781 86.328125 135.640625 86.320312 135.601562 86.304688 C 135.472656 86.246094 135.414062 86.089844 135.476562 85.960938 C 139.304688 77.574219 139.429688 69.628906 138.855469 64.441406 C 138.238281 58.808594 136.6875 55.117188 136.671875 55.078125 C 136.617188 54.945312 136.679688 54.792969 136.8125 54.738281 C 136.945312 54.683594 137.097656 54.742188 137.15625 54.875 C 137.171875 54.914062 138.746094 58.664062 139.375 64.363281 C 139.957031 69.621094 139.832031 77.675781 135.949219 86.175781 C 135.90625 86.273438 135.8125 86.328125 135.710938 86.328125 "/><path style=" stroke:none;fill-rule:nonzero;fill:#000000;fill-opacity:1;" d="M 63.394531 74.574219 C 63.25 74.574219 63.132812 74.457031 63.132812 74.3125 L 63.132812 72.964844 C 63.132812 72.820312 63.25 72.703125 63.394531 72.703125 C 63.535156 72.703125 63.652344 72.820312 63.652344 72.964844 L 63.652344 74.3125 C 63.652344 74.457031 63.535156 74.574219 63.394531 74.574219 "/><path style=" stroke:none;fill-rule:nonzero;fill:#000000;fill-opacity:1;" d="M 63.394531 77.71875 C 63.25 77.71875 63.132812 77.601562 63.132812 77.457031 L 63.132812 76.109375 C 63.132812 75.964844 63.25 75.847656 63.394531 75.847656 C 63.535156 75.847656 63.652344 75.964844 63.652344 76.109375 L 63.652344 77.457031 C 63.652344 77.601562 63.535156 77.71875 63.394531 77.71875 "/><path style=" stroke:none;fill-rule:nonzero;fill:#000000;fill-opacity:1;" d="M 62.496094 75.472656 L 61.144531 75.472656 C 61 75.472656 60.882812 75.355469 60.882812 75.210938 C 60.882812 75.066406 61 74.949219 61.144531 74.949219 L 62.496094 74.949219 C 62.640625 74.949219 62.757812 75.066406 62.757812 75.210938 C 62.757812 75.355469 62.640625 75.472656 62.496094 75.472656 "/><path style=" stroke:none;fill-rule:nonzero;fill:#000000;fill-opacity:1;" d="M 65.640625 75.472656 L 64.292969 75.472656 C 64.148438 75.472656 64.03125 75.355469 64.03125 75.210938 C 64.03125 75.066406 64.148438 74.949219 64.292969 74.949219 L 65.640625 74.949219 C 65.789062 74.949219 65.902344 75.066406 65.902344 75.210938 C 65.902344 75.355469 65.789062 75.472656 65.640625 75.472656 "/><path style=" stroke:none;fill-rule:nonzero;fill:#000000;fill-opacity:1;" d="M 14.320312 45.054688 C 14.175781 45.054688 14.058594 44.9375 14.058594 44.792969 L 14.058594 43.445312 C 14.058594 43.300781 14.175781 43.183594 14.320312 43.183594 C 14.464844 43.183594 14.582031 43.300781 14.582031 43.445312 L 14.582031 44.792969 C 14.582031 44.9375 14.464844 45.054688 14.320312 45.054688 "/><path style=" stroke:none;fill-rule:nonzero;fill:#000000;fill-opacity:1;" d="M 14.320312 48.199219 C 14.175781 48.199219 14.058594 48.082031 14.058594 47.9375 L 14.058594 46.589844 C 14.058594 46.445312 14.175781 46.328125 14.320312 46.328125 C 14.464844 46.328125 14.582031 46.445312 14.582031 46.589844 L 14.582031 47.9375 C 14.582031 48.082031 14.464844 48.199219 14.320312 48.199219 "/><path style=" stroke:none;fill-rule:nonzero;fill:#000000;fill-opacity:1;" d="M 13.421875 45.953125 L 12.070312 45.953125 C 11.925781 45.953125 11.808594 45.835938 11.808594 45.691406 C 11.808594 45.546875 11.925781 45.429688 12.070312 45.429688 L 13.421875 45.429688 C 13.566406 45.429688 13.683594 45.546875 13.683594 45.691406 C 13.683594 45.835938 13.566406 45.953125 13.421875 45.953125 "/><path style=" stroke:none;fill-rule:nonzero;fill:#000000;fill-opacity:1;" d="M 16.570312 45.953125 L 15.21875 45.953125 C 15.074219 45.953125 14.957031 45.835938 14.957031 45.691406 C 14.957031 45.546875 15.074219 45.429688 15.21875 45.429688 L 16.570312 45.429688 C 16.714844 45.429688 16.832031 45.546875 16.832031 45.691406 C 16.832031 45.835938 16.714844 45.953125 16.570312 45.953125 "/><path style=" stroke:none;fill-rule:nonzero;fill:#000000;fill-opacity:1;" d="M 119.480469 56.265625 C 119.335938 56.265625 119.21875 56.148438 119.21875 56.007812 L 119.21875 54.65625 C 119.21875 54.511719 119.335938 54.394531 119.480469 54.394531 C 119.621094 54.394531 119.738281 54.511719 119.738281 54.65625 L 119.738281 56.007812 C 119.738281 56.148438 119.621094 56.265625 119.480469 56.265625 "/><path style=" stroke:none;fill-rule:nonzero;fill:#000000;fill-opacity:1;" d="M 119.480469 59.410156 C 119.335938 59.410156 119.21875 59.292969 119.21875 59.148438 L 119.21875 57.800781 C 119.21875 57.65625 119.335938 57.539062 119.480469 57.539062 C 119.621094 57.539062 119.738281 57.65625 119.738281 57.800781 L 119.738281 59.148438 C 119.738281 59.292969 119.621094 59.410156 119.480469 59.410156 "/><path style=" stroke:none;fill-rule:nonzero;fill:#000000;fill-opacity:1;" d="M 118.582031 57.164062 L 117.230469 57.164062 C 117.085938 57.164062 116.96875 57.046875 116.96875 56.902344 C 116.96875 56.757812 117.085938 56.644531 117.230469 56.644531 L 118.582031 56.644531 C 118.722656 56.644531 118.839844 56.757812 118.839844 56.902344 C 118.839844 57.046875 118.722656 57.164062 118.582031 57.164062 "/><path style=" stroke:none;fill-rule:nonzero;fill:#000000;fill-opacity:1;" d="M 121.726562 57.164062 L 120.375 57.164062 C 120.234375 57.164062 120.117188 57.046875 120.117188 56.902344 C 120.117188 56.761719 120.234375 56.644531 120.375 56.644531 L 121.726562 56.644531 C 121.871094 56.644531 121.988281 56.761719 121.988281 56.902344 C 121.988281 57.046875 121.871094 57.164062 121.726562 57.164062 "/><path style=" stroke:none;fill-rule:nonzero;fill:#ffffff;fill-opacity:1;" d="M 109.488281 103.019531 C 108.6875 103.378906 108.324219 104.339844 108.675781 105.160156 C 108.847656 105.558594 109.164062 105.863281 109.5625 106.019531 C 109.957031 106.171875 110.382812 106.160156 110.765625 105.988281 C 111.566406 105.628906 111.933594 104.667969 111.578125 103.851562 C 111.40625 103.449219 111.089844 103.144531 110.691406 102.988281 C 110.300781 102.835938 109.875 102.847656 109.488281 103.019531 Z M 110.128906 106.648438 C 109.875 106.648438 109.621094 106.601562 109.375 106.507812 C 108.84375 106.300781 108.425781 105.894531 108.199219 105.367188 C 107.730469 104.285156 108.214844 103.019531 109.277344 102.542969 C 109.789062 102.316406 110.355469 102.300781 110.878906 102.503906 C 111.410156 102.707031 111.828125 103.113281 112.058594 103.644531 C 112.523438 104.722656 112.039062 105.988281 110.976562 106.464844 C 110.707031 106.585938 110.417969 106.648438 110.128906 106.648438 "/><path style=" stroke:none;fill-rule:nonzero;fill:#000000;fill-opacity:1;" d="M 39.472656 52.902344 C 39.363281 52.902344 39.265625 52.835938 39.226562 52.726562 C 39.175781 52.59375 39.25 52.441406 39.382812 52.394531 L 49.785156 48.667969 C 49.921875 48.621094 50.070312 48.691406 50.121094 48.824219 C 50.167969 48.960938 50.097656 49.109375 49.960938 49.160156 L 39.5625 52.886719 C 39.53125 52.894531 39.5 52.902344 39.472656 52.902344 "/><path style=" stroke:none;fill-rule:nonzero;fill:#000000;fill-opacity:1;" d="M 38.777344 50.8125 C 38.6875 50.8125 38.601562 50.769531 38.550781 50.6875 C 38.476562 50.566406 38.515625 50.40625 38.640625 50.328125 L 51.199219 42.675781 C 51.324219 42.601562 51.484375 42.640625 51.558594 42.761719 C 51.636719 42.886719 51.597656 43.046875 51.472656 43.121094 L 38.910156 50.773438 C 38.871094 50.800781 38.824219 50.8125 38.777344 50.8125 "/></g></svg>