<svg xmlns="http://www.w3.org/2000/svg" xmlns:xlink="http://www.w3.org/1999/xlink" width="200" zoomAndPan="magnify" viewBox="0 0 150 149.999998" height="200" preserveAspectRatio="xMidYMid meet" version="1.2"><defs><clipPath id="81b2f07924"><path d="M 17 4.75 L 40 4.75 L 40 25 L 17 25 Z M 17 4.75 "/></clipPath></defs><g id="c7800849ff"><path style=" stroke:none;fill-rule:nonzero;fill:#0f2135;fill-opacity:1;" d="M 16.304688 137.351562 C 16.292969 137.351562 16.277344 137.351562 16.261719 137.347656 C 16.152344 137.324219 16.078125 137.214844 16.101562 137.101562 C 16.273438 136.265625 16.925781 112.914062 12.316406 101.964844 C 12.269531 101.859375 12.320312 101.738281 12.425781 101.691406 C 12.53125 101.648438 12.652344 101.695312 12.699219 101.804688 C 15.144531 107.609375 16.074219 116.722656 16.425781 123.339844 C 16.820312 130.730469 16.59375 136.777344 16.507812 137.183594 C 16.488281 137.285156 16.402344 137.351562 16.304688 137.351562 Z M 16.304688 137.351562 "/><path style=" stroke:none;fill-rule:nonzero;fill:#72bf78;fill-opacity:1;" d="M 14.527344 109.246094 C 14.527344 109.246094 8.519531 103.011719 7.273438 95.414062 C 6.03125 87.820312 12.386719 85.4375 14.527344 93.375 C 16.671875 101.3125 14.527344 109.246094 14.527344 109.246094 Z M 14.527344 109.246094 "/><path style=" stroke:none;fill-rule:nonzero;fill:#0f2135;fill-opacity:1;" d="M 15.480469 138.160156 C 15.382812 138.160156 15.296875 138.09375 15.277344 137.996094 C 13.867188 131.339844 11.109375 123.921875 11.082031 123.847656 C 11.042969 123.738281 11.097656 123.617188 11.203125 123.578125 C 11.3125 123.539062 11.433594 123.59375 11.472656 123.699219 C 11.5 123.773438 14.269531 131.222656 15.683594 137.90625 C 15.707031 138.019531 15.636719 138.132812 15.523438 138.15625 C 15.507812 138.160156 15.496094 138.160156 15.480469 138.160156 Z M 15.480469 138.160156 "/><path style=" stroke:none;fill-rule:nonzero;fill:#72bf78;fill-opacity:1;" d="M 11.992188 125.484375 C 11.992188 125.484375 1.023438 115.945312 2.09375 110.550781 C 2.753906 107.21875 6.8125 106.402344 8.769531 113.089844 C 10.371094 118.566406 11.992188 125.484375 11.992188 125.484375 Z M 11.992188 125.484375 "/><path style=" stroke:none;fill-rule:nonzero;fill:#0f2135;fill-opacity:1;" d="M 16.882812 138.476562 C 16.871094 138.476562 16.863281 138.476562 16.855469 138.476562 C 16.742188 138.460938 16.660156 138.359375 16.675781 138.242188 C 17.570312 130.894531 20.34375 123.769531 20.371094 123.699219 C 20.414062 123.589844 20.535156 123.539062 20.640625 123.578125 C 20.746094 123.621094 20.800781 123.742188 20.757812 123.851562 C 20.730469 123.921875 17.976562 131 17.085938 138.292969 C 17.074219 138.398438 16.984375 138.476562 16.882812 138.476562 Z M 16.882812 138.476562 "/><path style=" stroke:none;fill-rule:nonzero;fill:#72bf78;fill-opacity:1;" d="M 19.488281 126.71875 C 19.488281 126.71875 20.664062 114.503906 23.824219 111.199219 C 26.984375 107.890625 29.570312 112.050781 27.703125 116.222656 C 25.835938 120.390625 19.488281 126.71875 19.488281 126.71875 Z M 19.488281 126.71875 "/><path style=" stroke:none;fill-rule:nonzero;fill:#fea577;fill-opacity:1;" d="M 5.425781 149.617188 C 5.425781 149.617188 5.195312 146.050781 7.960938 143.746094 C 10.722656 141.441406 10.375 142.191406 11.757812 139.738281 C 13.140625 137.289062 15.671875 132.683594 17.746094 134.871094 C 19.816406 137.058594 20.046875 137.796875 21.660156 138.523438 C 23.269531 139.25 24.882812 141.429688 25.574219 143.222656 C 26.261719 145.015625 27.414062 145.9375 28.105469 146.746094 C 28.796875 147.550781 29.519531 149.617188 29.519531 149.617188 Z M 5.425781 149.617188 "/><path style=" stroke:none;fill-rule:nonzero;fill:#0f2135;fill-opacity:1;" d="M 50.695312 137.351562 C 50.679688 137.351562 50.667969 137.351562 50.652344 137.347656 C 50.539062 137.324219 50.464844 137.214844 50.488281 137.101562 C 50.664062 136.265625 51.316406 112.917969 46.703125 101.964844 C 46.660156 101.859375 46.707031 101.738281 46.8125 101.691406 C 46.921875 101.648438 47.042969 101.695312 47.085938 101.804688 C 49.53125 107.609375 50.464844 116.722656 50.816406 123.339844 C 51.207031 130.730469 50.980469 136.777344 50.898438 137.183594 C 50.878906 137.285156 50.789062 137.351562 50.695312 137.351562 Z M 50.695312 137.351562 "/><path style=" stroke:none;fill-rule:nonzero;fill:#72bf78;fill-opacity:1;" d="M 48.917969 109.246094 C 48.917969 109.246094 42.910156 103.011719 41.664062 95.414062 C 40.417969 87.820312 46.777344 85.4375 48.917969 93.375 C 51.058594 101.3125 48.917969 109.246094 48.917969 109.246094 Z M 48.917969 109.246094 "/><path style=" stroke:none;fill-rule:nonzero;fill:#0f2135;fill-opacity:1;" d="M 49.871094 138.160156 C 49.773438 138.160156 49.6875 138.09375 49.664062 137.996094 C 48.257812 131.339844 45.5 123.921875 45.472656 123.847656 C 45.429688 123.738281 45.484375 123.617188 45.59375 123.578125 C 45.699219 123.539062 45.820312 123.59375 45.863281 123.699219 C 45.890625 123.773438 48.65625 131.222656 50.074219 137.90625 C 50.097656 138.019531 50.023438 138.132812 49.914062 138.15625 C 49.898438 138.160156 49.882812 138.160156 49.871094 138.160156 Z M 49.871094 138.160156 "/><path style=" stroke:none;fill-rule:nonzero;fill:#72bf78;fill-opacity:1;" d="M 46.382812 125.484375 C 46.382812 125.484375 35.410156 115.945312 36.480469 110.550781 C 37.144531 107.21875 41.203125 106.402344 43.160156 113.089844 C 44.761719 118.566406 46.382812 125.484375 46.382812 125.484375 Z M 46.382812 125.484375 "/><path style=" stroke:none;fill-rule:nonzero;fill:#0f2135;fill-opacity:1;" d="M 51.269531 138.476562 C 51.261719 138.476562 51.253906 138.476562 51.246094 138.476562 C 51.128906 138.460938 51.050781 138.359375 51.0625 138.242188 C 51.957031 130.894531 54.730469 123.769531 54.757812 123.699219 C 54.800781 123.589844 54.921875 123.539062 55.03125 123.578125 C 55.136719 123.621094 55.1875 123.742188 55.148438 123.851562 C 55.121094 123.921875 52.363281 131 51.476562 138.292969 C 51.464844 138.398438 51.375 138.476562 51.269531 138.476562 Z M 51.269531 138.476562 "/><path style=" stroke:none;fill-rule:nonzero;fill:#72bf78;fill-opacity:1;" d="M 53.875 126.71875 C 53.875 126.71875 55.050781 114.503906 58.214844 111.199219 C 61.375 107.890625 63.957031 112.050781 62.089844 116.222656 C 60.226562 120.390625 53.875 126.71875 53.875 126.71875 Z M 53.875 126.71875 "/><path style=" stroke:none;fill-rule:nonzero;fill:#fea577;fill-opacity:1;" d="M 39.816406 149.617188 C 39.816406 149.617188 39.585938 146.050781 42.347656 143.746094 C 45.109375 141.441406 44.765625 142.191406 46.148438 139.738281 C 47.527344 137.289062 50.0625 132.683594 52.132812 134.871094 C 54.207031 137.058594 54.433594 137.796875 56.046875 138.523438 C 57.660156 139.25 59.269531 141.429688 59.960938 143.222656 C 60.652344 145.015625 61.804688 145.9375 62.492188 146.746094 C 63.183594 147.550781 63.910156 149.617188 63.910156 149.617188 Z M 39.816406 149.617188 "/><path style=" stroke:none;fill-rule:nonzero;fill:#0f2135;fill-opacity:1;" d="M 85.082031 137.351562 C 85.070312 137.351562 85.054688 137.351562 85.039062 137.347656 C 84.929688 137.324219 84.855469 137.214844 84.878906 137.101562 C 85.050781 136.265625 85.703125 112.917969 81.09375 101.964844 C 81.046875 101.859375 81.097656 101.738281 81.203125 101.691406 C 81.308594 101.648438 81.429688 101.695312 81.476562 101.804688 C 83.921875 107.609375 84.855469 116.722656 85.203125 123.339844 C 85.597656 130.730469 85.371094 136.777344 85.285156 137.183594 C 85.265625 137.285156 85.179688 137.351562 85.082031 137.351562 Z M 85.082031 137.351562 "/><path style=" stroke:none;fill-rule:nonzero;fill:#72bf78;fill-opacity:1;" d="M 83.304688 109.246094 C 83.304688 109.246094 77.296875 103.011719 76.050781 95.414062 C 74.808594 87.820312 81.164062 85.4375 83.304688 93.375 C 85.449219 101.3125 83.304688 109.246094 83.304688 109.246094 Z M 83.304688 109.246094 "/><path style=" stroke:none;fill-rule:nonzero;fill:#0f2135;fill-opacity:1;" d="M 84.257812 138.160156 C 84.160156 138.160156 84.074219 138.09375 84.054688 137.996094 C 82.644531 131.339844 79.886719 123.921875 79.859375 123.847656 C 79.820312 123.738281 79.875 123.617188 79.980469 123.578125 C 80.089844 123.539062 80.210938 123.59375 80.25 123.699219 C 80.277344 123.773438 83.046875 131.222656 84.460938 137.90625 C 84.484375 138.019531 84.414062 138.132812 84.300781 138.15625 C 84.285156 138.160156 84.273438 138.160156 84.257812 138.160156 Z M 84.257812 138.160156 "/><path style=" stroke:none;fill-rule:nonzero;fill:#72bf78;fill-opacity:1;" d="M 80.769531 125.484375 C 80.769531 125.484375 69.800781 115.945312 70.871094 110.550781 C 71.53125 107.21875 75.589844 106.402344 77.546875 113.089844 C 79.148438 118.566406 80.769531 125.484375 80.769531 125.484375 Z M 80.769531 125.484375 "/><path style=" stroke:none;fill-rule:nonzero;fill:#0f2135;fill-opacity:1;" d="M 85.660156 138.476562 C 85.648438 138.476562 85.640625 138.476562 85.632812 138.476562 C 85.519531 138.460938 85.4375 138.359375 85.453125 138.242188 C 86.347656 130.894531 89.121094 123.769531 89.148438 123.699219 C 89.191406 123.589844 89.3125 123.539062 89.417969 123.578125 C 89.523438 123.621094 89.578125 123.742188 89.535156 123.851562 C 89.507812 123.921875 86.753906 131 85.863281 138.292969 C 85.851562 138.398438 85.761719 138.476562 85.660156 138.476562 Z M 85.660156 138.476562 "/><path style=" stroke:none;fill-rule:nonzero;fill:#72bf78;fill-opacity:1;" d="M 88.265625 126.71875 C 88.265625 126.71875 89.441406 114.503906 92.601562 111.199219 C 95.761719 107.890625 98.347656 112.050781 96.480469 116.222656 C 94.613281 120.390625 88.265625 126.71875 88.265625 126.71875 Z M 88.265625 126.71875 "/><path style=" stroke:none;fill-rule:nonzero;fill:#fea577;fill-opacity:1;" d="M 74.203125 149.617188 C 74.203125 149.617188 73.972656 146.050781 76.738281 143.746094 C 79.5 141.441406 79.152344 142.191406 80.535156 139.738281 C 81.917969 137.289062 84.449219 132.683594 86.523438 134.871094 C 88.59375 137.058594 88.824219 137.796875 90.4375 138.523438 C 92.046875 139.25 93.660156 141.429688 94.351562 143.222656 C 95.039062 145.015625 96.191406 145.9375 96.882812 146.746094 C 97.574219 147.550781 98.296875 149.617188 98.296875 149.617188 Z M 74.203125 149.617188 "/><path style=" stroke:none;fill-rule:nonzero;fill:#0f2135;fill-opacity:1;" d="M 119.472656 137.351562 C 119.457031 137.351562 119.445312 137.351562 119.429688 137.347656 C 119.316406 137.324219 119.242188 137.214844 119.265625 137.101562 C 119.441406 136.265625 120.09375 112.914062 115.480469 101.964844 C 115.4375 101.859375 115.484375 101.738281 115.589844 101.691406 C 115.699219 101.648438 115.820312 101.695312 115.863281 101.804688 C 118.308594 107.609375 119.242188 116.722656 119.59375 123.339844 C 119.984375 130.730469 119.757812 136.777344 119.675781 137.183594 C 119.65625 137.285156 119.566406 137.351562 119.472656 137.351562 Z M 119.472656 137.351562 "/><path style=" stroke:none;fill-rule:nonzero;fill:#72bf78;fill-opacity:1;" d="M 117.695312 109.246094 C 117.695312 109.246094 111.6875 103.011719 110.441406 95.414062 C 109.195312 87.820312 115.554688 85.4375 117.695312 93.375 C 119.835938 101.3125 117.695312 109.246094 117.695312 109.246094 Z M 117.695312 109.246094 "/><path style=" stroke:none;fill-rule:nonzero;fill:#0f2135;fill-opacity:1;" d="M 118.644531 138.160156 C 118.550781 138.160156 118.464844 138.09375 118.441406 137.996094 C 117.035156 131.339844 114.277344 123.921875 114.25 123.847656 C 114.207031 123.738281 114.261719 123.617188 114.371094 123.578125 C 114.480469 123.539062 114.597656 123.59375 114.640625 123.699219 C 114.667969 123.773438 117.433594 131.222656 118.851562 137.90625 C 118.875 138.019531 118.800781 138.132812 118.691406 138.15625 C 118.675781 138.160156 118.660156 138.160156 118.644531 138.160156 Z M 118.644531 138.160156 "/><path style=" stroke:none;fill-rule:nonzero;fill:#72bf78;fill-opacity:1;" d="M 115.160156 125.484375 C 115.160156 125.484375 104.1875 115.945312 105.257812 110.550781 C 105.921875 107.21875 109.980469 106.402344 111.9375 113.089844 C 113.539062 118.566406 115.160156 125.484375 115.160156 125.484375 Z M 115.160156 125.484375 "/><path style=" stroke:none;fill-rule:nonzero;fill:#0f2135;fill-opacity:1;" d="M 120.046875 138.476562 C 120.039062 138.476562 120.03125 138.476562 120.023438 138.476562 C 119.90625 138.460938 119.828125 138.359375 119.839844 138.242188 C 120.734375 130.894531 123.507812 123.769531 123.535156 123.699219 C 123.578125 123.589844 123.699219 123.539062 123.808594 123.578125 C 123.914062 123.621094 123.964844 123.742188 123.925781 123.851562 C 123.898438 123.921875 121.140625 131 120.253906 138.292969 C 120.242188 138.398438 120.152344 138.476562 120.046875 138.476562 Z M 120.046875 138.476562 "/><path style=" stroke:none;fill-rule:nonzero;fill:#72bf78;fill-opacity:1;" d="M 122.652344 126.71875 C 122.652344 126.71875 123.828125 114.503906 126.992188 111.199219 C 130.152344 107.890625 132.734375 112.050781 130.867188 116.222656 C 129 120.390625 122.652344 126.71875 122.652344 126.71875 Z M 122.652344 126.71875 "/><path style=" stroke:none;fill-rule:nonzero;fill:#fea577;fill-opacity:1;" d="M 108.59375 149.617188 C 108.59375 149.617188 108.363281 146.050781 111.125 143.746094 C 113.886719 141.441406 113.542969 142.191406 114.925781 139.738281 C 116.304688 137.289062 118.839844 132.683594 120.910156 134.871094 C 122.984375 137.058594 123.210938 137.796875 124.824219 138.523438 C 126.4375 139.25 128.046875 141.429688 128.738281 143.222656 C 129.429688 145.015625 130.582031 145.9375 131.269531 146.746094 C 131.960938 147.550781 132.6875 149.617188 132.6875 149.617188 Z M 108.59375 149.617188 "/><path style=" stroke:none;fill-rule:nonzero;fill:#fea577;fill-opacity:1;" d="M 68.457031 76.492188 C 68.457031 76.492188 66.476562 77.984375 64.078125 77.683594 C 61.679688 77.382812 49.621094 74.859375 48 73.957031 C 46.382812 73.054688 44.5625 70.507812 43.003906 68.699219 C 41.441406 66.886719 40.960938 67.125 40.800781 68.207031 C 40.644531 69.289062 41.882812 71.773438 41.882812 71.773438 C 41.882812 71.773438 41.164062 71.972656 40.5625 71.574219 C 39.960938 71.171875 36.761719 68.449219 35.363281 67.808594 C 33.964844 67.167969 33.945312 68.429688 34.023438 68.847656 C 34.105469 69.269531 34.144531 69.371094 34.144531 69.371094 C 34.144531 69.371094 33.503906 68.96875 32.90625 68.46875 C 32.304688 67.96875 31.683594 68.488281 31.746094 69.410156 C 31.804688 70.332031 32.644531 71.390625 32.644531 71.390625 C 32.644531 71.390625 32.324219 71.351562 31.964844 71.070312 C 31.605469 70.792969 30.863281 71.59375 31.265625 72.933594 C 31.664062 74.277344 33.304688 75.757812 33.304688 75.757812 C 33.304688 75.757812 32.683594 75.699219 32.265625 75.78125 C 31.84375 75.859375 32.34375 77.480469 33.625 78.523438 C 34.902344 79.566406 40.683594 82.269531 41.523438 82.46875 C 42.363281 82.671875 47.441406 83.472656 49.121094 84.152344 C 50.800781 84.832031 66.265625 91.953125 72.925781 92.042969 C 79.582031 92.132812 83.09375 78.945312 83.09375 78.945312 C 83.09375 78.945312 78.6875 72.875 74.816406 72.183594 C 70.945312 71.492188 68.457031 76.492188 68.457031 76.492188 Z M 68.457031 76.492188 "/><path style=" stroke:none;fill-rule:nonzero;fill:#0f2135;fill-opacity:1;" d="M 44.441406 78.671875 C 44.40625 78.671875 44.367188 78.664062 44.335938 78.644531 C 41.902344 77.195312 41.855469 72.800781 41.855469 72.617188 C 41.851562 72.5 41.945312 72.40625 42.0625 72.40625 C 42.175781 72.40625 42.269531 72.5 42.269531 72.613281 C 42.269531 72.65625 42.316406 76.957031 44.546875 78.285156 C 44.648438 78.34375 44.679688 78.472656 44.621094 78.570312 C 44.582031 78.636719 44.511719 78.671875 44.441406 78.671875 Z M 44.441406 78.671875 "/><path style=" stroke:none;fill-rule:nonzero;fill:#0f2135;fill-opacity:1;" d="M 38.671875 73.414062 C 38.636719 73.414062 38.597656 73.40625 38.566406 73.382812 C 35.988281 71.824219 34.003906 69.527344 33.984375 69.503906 C 33.910156 69.417969 33.921875 69.285156 34.007812 69.210938 C 34.09375 69.136719 34.226562 69.144531 34.300781 69.234375 C 34.320312 69.257812 36.261719 71.5 38.78125 73.027344 C 38.878906 73.085938 38.910156 73.214844 38.851562 73.3125 C 38.8125 73.378906 38.742188 73.414062 38.671875 73.414062 Z M 38.671875 73.414062 "/><path style=" stroke:none;fill-rule:nonzero;fill:#0f2135;fill-opacity:1;" d="M 37.351562 75.515625 C 37.324219 75.515625 37.292969 75.511719 37.265625 75.496094 C 35.332031 74.589844 32.605469 71.660156 32.492188 71.535156 C 32.414062 71.449219 32.417969 71.316406 32.503906 71.238281 C 32.585938 71.160156 32.71875 71.167969 32.796875 71.25 C 32.824219 71.28125 35.582031 74.246094 37.441406 75.121094 C 37.546875 75.167969 37.589844 75.292969 37.542969 75.398438 C 37.507812 75.472656 37.429688 75.515625 37.351562 75.515625 Z M 37.351562 75.515625 "/><path style=" stroke:none;fill-rule:nonzero;fill:#0f2135;fill-opacity:1;" d="M 37.113281 78.160156 C 37.097656 78.160156 37.078125 78.160156 37.058594 78.15625 C 35.898438 77.847656 33.292969 76.007812 33.183594 75.929688 C 33.089844 75.863281 33.066406 75.734375 33.132812 75.640625 C 33.199219 75.542969 33.332031 75.523438 33.425781 75.589844 C 33.449219 75.609375 36.078125 77.464844 37.167969 77.75 C 37.277344 77.78125 37.34375 77.894531 37.316406 78.007812 C 37.289062 78.097656 37.207031 78.160156 37.113281 78.160156 Z M 37.113281 78.160156 "/><path style=" stroke:none;fill-rule:nonzero;fill:#789dbc;fill-opacity:1;" d="M 84.878906 49.230469 C 84.878906 49.230469 83.214844 50.890625 80.511719 55.816406 C 77.8125 60.746094 72.355469 72.703125 72.355469 72.703125 C 72.355469 72.703125 80.875 79.914062 83.09375 79.707031 C 85.3125 79.496094 95.257812 63.628906 95.921875 56.417969 C 96.589844 49.207031 86.730469 46.808594 84.878906 49.230469 Z M 84.878906 49.230469 "/><path style=" stroke:none;fill-rule:nonzero;fill:#789dbc;fill-opacity:1;" d="M 92.550781 97.644531 C 92.550781 97.644531 84.59375 67.957031 83.09375 62.429688 C 81.59375 56.898438 82.140625 50.769531 86.726562 47.527344 C 91.3125 44.28125 99.347656 40.296875 99.347656 40.296875 C 99.347656 40.296875 103.585938 36.941406 104.4375 36.828125 C 105.285156 36.714844 117.601562 38.03125 125.8125 44.761719 C 134.019531 51.492188 131.503906 53.535156 134.5 65.914062 C 137.5 78.292969 140.980469 87.90625 141.339844 89.351562 C 141.699219 90.792969 143.5 90.914062 141.101562 93.4375 C 138.699219 95.960938 129.03125 100.015625 129.03125 100.015625 C 129.03125 100.015625 96.136719 111.023438 92.550781 97.644531 Z M 92.550781 97.644531 "/><path style=" stroke:none;fill-rule:nonzero;fill:#0f2135;fill-opacity:1;" d="M 89.394531 86.082031 C 89.304688 86.082031 89.222656 86.027344 89.195312 85.9375 C 86.703125 78.40625 82.925781 60.976562 82.890625 60.800781 C 82.863281 60.691406 82.9375 60.578125 83.050781 60.554688 C 83.160156 60.53125 83.273438 60.601562 83.296875 60.714844 C 83.335938 60.890625 87.105469 78.292969 89.589844 85.808594 C 89.628906 85.917969 89.566406 86.035156 89.457031 86.070312 C 89.4375 86.078125 89.414062 86.082031 89.394531 86.082031 Z M 89.394531 86.082031 "/><path style=" stroke:none;fill-rule:nonzero;fill:#789dbc;fill-opacity:1;" d="M 91.417969 134.710938 C 91.285156 135.015625 92.875 136.464844 92.601562 139.707031 C 92.332031 142.953125 90.410156 143.792969 88.910156 144.214844 C 87.410156 144.636719 86.292969 149.617188 90.511719 149.617188 C 94.730469 149.617188 97.488281 149.617188 97.488281 149.617188 C 97.488281 149.617188 107.988281 129.492188 105.828125 127.449219 C 103.667969 125.40625 92.191406 122.28125 92.191406 122.28125 C 92.191406 122.28125 82.433594 126.726562 85.550781 130.09375 C 88.671875 133.457031 91.417969 134.710938 91.417969 134.710938 Z M 91.417969 134.710938 "/><path style=" stroke:none;fill-rule:nonzero;fill:#0f2135;fill-opacity:1;" d="M 100.105469 94.519531 C 100.105469 94.519531 82.074219 92.476562 69.117188 96.921875 C 56.160156 101.367188 50.761719 111.585938 58.679688 120.597656 C 66.597656 129.613281 89.949219 137.183594 90.511719 136.582031 C 91.070312 135.980469 96.59375 122.28125 96.292969 120.839844 C 95.988281 119.398438 100.105469 94.519531 100.105469 94.519531 Z M 100.105469 94.519531 "/><path style=" stroke:none;fill-rule:nonzero;fill:#c9e9d2;fill-opacity:1;" d="M 95.273438 116.960938 C 95.234375 116.960938 95.195312 116.949219 95.160156 116.925781 C 90.472656 113.753906 83.164062 113.617188 83.089844 113.617188 C 82.976562 113.613281 82.882812 113.519531 82.886719 113.402344 C 82.886719 113.289062 82.980469 113.199219 83.09375 113.199219 L 83.097656 113.199219 C 83.171875 113.199219 90.601562 113.335938 95.390625 116.578125 C 95.488281 116.644531 95.511719 116.773438 95.449219 116.871094 C 95.40625 116.929688 95.34375 116.960938 95.277344 116.960938 Z M 95.273438 116.960938 "/><path style=" stroke:none;fill-rule:nonzero;fill:#789dbc;fill-opacity:1;" d="M 100.5625 131.175781 C 100.5625 131.175781 96.167969 139.5 93.316406 141.167969 C 90.464844 142.835938 86.664062 142.714844 84.644531 142.597656 C 82.625 142.476562 82.742188 145.746094 84.644531 147.355469 C 86.542969 148.96875 89.15625 149.617188 89.15625 149.617188 L 114.460938 149.617188 C 114.460938 149.617188 116.839844 147.117188 115.175781 143.191406 C 113.511719 139.261719 112.5625 131.175781 112.5625 131.175781 C 112.5625 131.175781 108.640625 126.765625 105.433594 126.53125 C 102.226562 126.292969 101.375 129.707031 100.5625 131.175781 Z M 100.5625 131.175781 "/><path style=" stroke:none;fill-rule:nonzero;fill:#0f2135;fill-opacity:1;" d="M 115.570312 147.660156 L 84.644531 147.660156 C 84.527344 147.660156 84.433594 147.566406 84.433594 147.453125 C 84.433594 147.335938 84.527344 147.246094 84.644531 147.246094 L 115.570312 147.246094 C 115.6875 147.246094 115.777344 147.335938 115.777344 147.453125 C 115.777344 147.566406 115.6875 147.660156 115.570312 147.660156 Z M 115.570312 147.660156 "/><path style=" stroke:none;fill-rule:nonzero;fill:#0f2135;fill-opacity:1;" d="M 95.277344 143.160156 C 95.210938 143.160156 95.152344 143.132812 95.109375 143.078125 C 93.742188 141.269531 92.292969 141.902344 92.277344 141.90625 C 92.175781 141.957031 92.050781 141.910156 92.003906 141.804688 C 91.957031 141.699219 92 141.574219 92.105469 141.527344 C 92.125 141.519531 93.875 140.753906 95.441406 142.828125 C 95.511719 142.917969 95.492188 143.050781 95.402344 143.121094 C 95.363281 143.148438 95.320312 143.160156 95.277344 143.160156 Z M 95.277344 143.160156 "/><path style=" stroke:none;fill-rule:nonzero;fill:#0f2135;fill-opacity:1;" d="M 100.445312 139.53125 C 100.390625 139.53125 100.335938 139.511719 100.292969 139.46875 C 98.953125 138.066406 96.335938 138.273438 96.308594 138.277344 C 96.195312 138.285156 96.09375 138.199219 96.085938 138.085938 C 96.074219 137.96875 96.160156 137.871094 96.273438 137.859375 C 96.390625 137.851562 99.117188 137.636719 100.59375 139.179688 C 100.671875 139.261719 100.671875 139.394531 100.585938 139.472656 C 100.546875 139.511719 100.496094 139.53125 100.445312 139.53125 Z M 100.445312 139.53125 "/><path style=" stroke:none;fill-rule:nonzero;fill:#0f2135;fill-opacity:1;" d="M 67.820312 76.121094 L 61.621094 53.359375 C 61.554688 53.109375 61.351562 52.917969 61.097656 52.867188 L 43.472656 49.242188 C 43.238281 49.195312 42.996094 49.273438 42.832031 49.449219 L 42.820312 49.464844 C 42.65625 49.640625 42.597656 49.890625 42.664062 50.121094 L 48.835938 71.777344 C 48.902344 72.007812 49.085938 72.1875 49.320312 72.25 L 66.980469 76.964844 C 67.226562 77.03125 67.488281 76.953125 67.660156 76.765625 C 67.820312 76.59375 67.882812 76.347656 67.820312 76.121094 Z M 67.820312 76.121094 "/><path style=" stroke:none;fill-rule:nonzero;fill:#789dbc;fill-opacity:1;" d="M 67.261719 76.636719 L 61.015625 53.695312 C 60.988281 53.597656 60.910156 53.523438 60.8125 53.5 L 42.976562 49.835938 C 42.78125 49.796875 42.613281 49.972656 42.664062 50.164062 L 48.363281 72.574219 C 48.390625 72.671875 48.46875 72.75 48.566406 72.769531 L 66.945312 76.972656 C 67.140625 77.015625 67.316406 76.832031 67.261719 76.636719 Z M 67.261719 76.636719 "/><path style=" stroke:none;fill-rule:nonzero;fill:#fea577;fill-opacity:1;" d="M 91.867188 36.148438 C 92.871094 38.0625 93.660156 40.457031 94.1875 42.347656 C 94.699219 44.164062 94.96875 45.515625 94.96875 45.515625 C 94.96875 45.515625 98.5 46.242188 102.367188 43.859375 C 105.589844 41.875 106.429688 38.871094 106.429688 38.871094 C 106.429688 38.871094 106.585938 38.621094 104.4375 35.417969 C 102.289062 32.210938 101.675781 29.078125 101.675781 29.078125 C 101.03125 27.777344 100.574219 27.265625 99.808594 27.089844 C 98.867188 26.871094 97.453125 27.167969 94.628906 27.132812 C 89.511719 27.066406 89.890625 32.394531 91.867188 36.148438 Z M 91.867188 36.148438 "/><path style=" stroke:none;fill-rule:nonzero;fill:#0f2135;fill-opacity:1;" d="M 91.867188 36.148438 C 92.871094 38.0625 93.660156 40.457031 94.1875 42.347656 C 100.886719 39.257812 101.335938 31.949219 101.335938 31.949219 C 101.242188 31.265625 100.550781 28.464844 99.808594 27.089844 C 98.867188 26.871094 97.453125 27.167969 94.628906 27.132812 C 89.511719 27.066406 89.890625 32.394531 91.867188 36.148438 Z M 91.867188 36.148438 "/><path style=" stroke:none;fill-rule:nonzero;fill:#fea577;fill-opacity:1;" d="M 83.746094 18.773438 C 83.511719 19.449219 82.519531 21.558594 83.019531 24.375 C 83.519531 27.1875 83.910156 27.882812 83.738281 30.722656 C 83.570312 33.5625 83.972656 38.511719 87.804688 39.90625 C 91.636719 41.296875 99.78125 39.050781 101.335938 31.949219 C 102.886719 24.851562 102.203125 19.667969 100.722656 16.796875 C 99.242188 13.921875 92.5625 11.714844 87.984375 12.304688 C 83.40625 12.894531 84.289062 17.21875 83.746094 18.773438 Z M 83.746094 18.773438 "/><path style=" stroke:none;fill-rule:nonzero;fill:#0f2135;fill-opacity:1;" d="M 100.550781 27.90625 C 99.664062 26.585938 98.960938 22.746094 98.914062 21.976562 C 98.871094 21.207031 98.585938 21.714844 97.515625 20.285156 C 96.445312 18.859375 95.96875 18.097656 95.96875 18.097656 C 95.96875 18.097656 88.140625 22.542969 82.726562 19.640625 C 77.316406 16.738281 78.261719 10.074219 79.964844 8.800781 C 81.664062 7.523438 84.3125 7.734375 84.1875 8.867188 C 84.0625 10.003906 86.460938 9.550781 89.671875 8.316406 C 92.882812 7.078125 101.101562 7.457031 103.777344 10.507812 C 106.457031 13.554688 105.21875 17.363281 105.21875 17.363281 C 105.21875 17.363281 109.839844 18.980469 108.578125 23.308594 C 107.316406 27.632812 103.257812 31.941406 103.304688 33.101562 C 103.351562 34.257812 101.996094 31.097656 101.53125 30.417969 C 101.066406 29.742188 100.550781 27.90625 100.550781 27.90625 Z M 100.550781 27.90625 "/><path style=" stroke:none;fill-rule:nonzero;fill:#fea577;fill-opacity:1;" d="M 100.550781 27.90625 C 100.984375 26.820312 101.058594 24.140625 103.261719 24.960938 C 105.464844 25.78125 104.277344 30.746094 102.078125 32.164062 C 99.875 33.585938 100.550781 27.90625 100.550781 27.90625 Z M 100.550781 27.90625 "/><path style=" stroke:none;fill-rule:nonzero;fill:#0f2135;fill-opacity:1;" d="M 101.542969 30.367188 C 101.445312 30.367188 101.359375 30.300781 101.339844 30.199219 C 101.046875 28.695312 101.199219 27.554688 101.792969 26.8125 C 102.414062 26.03125 103.285156 25.996094 103.324219 25.992188 C 103.441406 25.988281 103.535156 26.082031 103.539062 26.195312 C 103.539062 26.3125 103.449219 26.40625 103.335938 26.410156 C 103.308594 26.414062 102.613281 26.449219 102.113281 27.078125 C 101.605469 27.722656 101.480469 28.746094 101.746094 30.121094 C 101.769531 30.234375 101.695312 30.34375 101.582031 30.363281 C 101.570312 30.367188 101.554688 30.367188 101.542969 30.367188 Z M 101.542969 30.367188 "/><path style=" stroke:none;fill-rule:nonzero;fill:#0f2135;fill-opacity:1;" d="M 103.242188 28.804688 L 103.238281 28.804688 C 103.121094 28.804688 103.03125 28.707031 103.03125 28.59375 C 103.046875 27.78125 102.011719 27.195312 102 27.191406 C 101.902344 27.136719 101.863281 27.007812 101.917969 26.90625 C 101.976562 26.808594 102.101562 26.769531 102.203125 26.824219 C 102.253906 26.855469 103.46875 27.539062 103.449219 28.601562 C 103.445312 28.714844 103.355469 28.804688 103.242188 28.804688 Z M 103.242188 28.804688 "/><path style=" stroke:none;fill-rule:nonzero;fill:#0f2135;fill-opacity:1;" d="M 83.261719 26.1875 C 83.230469 26.1875 83.199219 26.183594 83.167969 26.175781 C 82.96875 26.125 82.847656 25.921875 82.898438 25.71875 C 82.917969 25.644531 83.390625 23.847656 84.738281 23.644531 C 86.082031 23.445312 86.820312 24.605469 86.851562 24.65625 C 86.960938 24.832031 86.910156 25.0625 86.734375 25.171875 C 86.554688 25.28125 86.324219 25.230469 86.214844 25.054688 C 86.195312 25.023438 85.699219 24.261719 84.847656 24.386719 C 84.140625 24.496094 83.722656 25.519531 83.625 25.90625 C 83.578125 26.074219 83.429688 26.1875 83.261719 26.1875 Z M 83.261719 26.1875 "/><path style=" stroke:none;fill-rule:nonzero;fill:#0f2135;fill-opacity:1;" d="M 89.445312 24.820312 C 89.410156 24.820312 89.375 24.8125 89.339844 24.804688 C 89.144531 24.746094 89.027344 24.539062 89.085938 24.339844 C 89.101562 24.289062 89.453125 23.128906 90.890625 22.800781 C 92.273438 22.484375 94.144531 23.714844 94.222656 23.769531 C 94.394531 23.882812 94.441406 24.117188 94.328125 24.289062 C 94.214844 24.460938 93.980469 24.507812 93.808594 24.394531 C 93.34375 24.085938 91.945312 23.332031 91.058594 23.53125 C 90.046875 23.761719 89.808594 24.539062 89.804688 24.546875 C 89.757812 24.710938 89.609375 24.820312 89.445312 24.820312 Z M 89.445312 24.820312 "/><path style=" stroke:none;fill-rule:nonzero;fill:#0f2135;fill-opacity:1;" d="M 88.183594 32.59375 C 88.183594 32.59375 88.179688 32.59375 88.179688 32.59375 C 87.664062 32.582031 87.304688 32.402344 87.117188 32.058594 C 86.597656 31.117188 87.636719 29.324219 87.757812 29.121094 C 87.816406 29.023438 87.941406 28.992188 88.042969 29.050781 C 88.140625 29.109375 88.171875 29.238281 88.113281 29.335938 C 87.820312 29.828125 87.136719 31.234375 87.480469 31.855469 C 87.59375 32.0625 87.828125 32.167969 88.191406 32.179688 C 88.304688 32.179688 88.394531 32.277344 88.394531 32.390625 C 88.390625 32.503906 88.296875 32.59375 88.183594 32.59375 Z M 88.183594 32.59375 "/><path style=" stroke:none;fill-rule:nonzero;fill:#0f2135;fill-opacity:1;" d="M 86.320312 27.8125 C 86.34375 28.09375 86.285156 28.34375 86.152344 28.558594 C 86.015625 28.769531 85.839844 28.886719 85.625 28.902344 C 85.410156 28.921875 85.21875 28.832031 85.050781 28.644531 C 84.882812 28.457031 84.785156 28.21875 84.765625 27.933594 C 84.742188 27.648438 84.796875 27.402344 84.933594 27.1875 C 85.070312 26.972656 85.246094 26.859375 85.460938 26.84375 C 85.675781 26.824219 85.867188 26.910156 86.035156 27.101562 C 86.203125 27.289062 86.296875 27.527344 86.320312 27.8125 Z M 86.320312 27.8125 "/><path style=" stroke:none;fill-rule:nonzero;fill:#0f2135;fill-opacity:1;" d="M 92.140625 27.347656 C 92.164062 27.632812 92.109375 27.882812 91.972656 28.097656 C 91.835938 28.308594 91.660156 28.425781 91.445312 28.441406 C 91.230469 28.457031 91.039062 28.371094 90.871094 28.183594 C 90.703125 27.996094 90.605469 27.757812 90.585938 27.472656 C 90.5625 27.1875 90.617188 26.9375 90.753906 26.726562 C 90.890625 26.511719 91.066406 26.398438 91.28125 26.378906 C 91.496094 26.363281 91.6875 26.449219 91.855469 26.640625 C 92.023438 26.828125 92.121094 27.066406 92.140625 27.347656 Z M 92.140625 27.347656 "/><path style=" stroke:none;fill-rule:nonzero;fill:#0f2135;fill-opacity:1;" d="M 88.710938 33.894531 C 88.710938 33.894531 90.535156 34.070312 91.808594 33.046875 C 93.082031 32.027344 93.121094 33.636719 92.371094 34.765625 C 91.625 35.898438 90.949219 36.171875 90.054688 35.542969 C 89.160156 34.914062 88.710938 33.894531 88.710938 33.894531 Z M 88.710938 33.894531 "/><path style=" stroke:none;fill-rule:nonzero;fill:#fea577;fill-opacity:1;" d="M 108.46875 69.007812 C 108.46875 69.007812 105.046875 72.976562 103.519531 73.605469 C 101.988281 74.238281 83.273438 74.597656 78.953125 72.164062 C 74.636719 69.730469 71.84375 67.925781 68.964844 65.855469 C 66.085938 63.78125 64.039062 63.511719 64.039062 63.511719 L 64.71875 66.273438 C 64.71875 66.273438 62.636719 65.914062 60.988281 64.921875 C 59.339844 63.929688 58.828125 64.710938 58.707031 65.253906 C 58.589844 65.792969 60.417969 67.445312 60.417969 67.445312 C 60.417969 67.445312 59.429688 67.117188 58.558594 66.695312 C 57.6875 66.273438 56.730469 66.996094 56.878906 67.714844 C 57.027344 68.4375 60.566406 70.839844 60.929688 70.933594 C 61.289062 71.023438 58.871094 69.878906 58.136719 69.761719 C 57.027344 69.578125 57.449219 70.871094 58.410156 72.074219 C 59.367188 73.273438 61.109375 73.9375 61.109375 73.9375 C 61.109375 73.9375 60.117188 73.757812 59.578125 74.386719 C 59.039062 75.019531 61.4375 77.0625 62.90625 77.660156 C 64.378906 78.261719 68.066406 79.765625 69.386719 80.15625 C 70.707031 80.546875 73.527344 79.914062 75.671875 80.757812 C 77.8125 81.597656 96.230469 86.464844 105.949219 87.308594 C 115.664062 88.148438 122.863281 73.484375 122.863281 73.484375 C 122.863281 73.484375 115.425781 69.941406 108.46875 69.007812 Z M 108.46875 69.007812 "/><path style=" stroke:none;fill-rule:nonzero;fill:#0f2135;fill-opacity:1;" d="M 66.417969 70.449219 C 66.390625 70.449219 66.363281 70.445312 66.335938 70.433594 C 63.457031 69.214844 61.222656 68.085938 60.488281 67.714844 L 60.324219 67.632812 C 60.222656 67.582031 60.179688 67.457031 60.230469 67.351562 C 60.285156 67.25 60.410156 67.207031 60.511719 67.257812 L 60.675781 67.34375 C 61.40625 67.710938 63.632812 68.835938 66.496094 70.046875 C 66.605469 70.09375 66.652344 70.214844 66.609375 70.320312 C 66.574219 70.402344 66.496094 70.449219 66.417969 70.449219 Z M 66.417969 70.449219 "/><path style=" stroke:none;fill-rule:nonzero;fill:#0f2135;fill-opacity:1;" d="M 65.15625 72.914062 C 65.140625 72.914062 65.121094 72.910156 65.101562 72.90625 C 63.761719 72.539062 60.253906 70.796875 59.988281 70.625 C 59.890625 70.5625 59.863281 70.433594 59.921875 70.335938 C 59.984375 70.242188 60.113281 70.210938 60.210938 70.273438 C 60.46875 70.4375 63.941406 72.15625 65.210938 72.503906 C 65.324219 72.535156 65.386719 72.648438 65.359375 72.757812 C 65.332031 72.851562 65.25 72.914062 65.15625 72.914062 Z M 65.15625 72.914062 "/><path style=" stroke:none;fill-rule:nonzero;fill:#0f2135;fill-opacity:1;" d="M 64.4375 75.636719 C 64.410156 75.636719 64.382812 75.628906 64.355469 75.617188 C 62.871094 74.980469 61.039062 74.132812 61.019531 74.125 C 60.917969 74.078125 60.871094 73.953125 60.917969 73.847656 C 60.96875 73.746094 61.089844 73.699219 61.195312 73.746094 C 61.214844 73.753906 63.039062 74.597656 64.519531 75.234375 C 64.625 75.28125 64.675781 75.402344 64.628906 75.507812 C 64.59375 75.585938 64.519531 75.636719 64.4375 75.636719 Z M 64.4375 75.636719 "/><path style=" stroke:none;fill-rule:nonzero;fill:#0f2135;fill-opacity:1;" d="M 86.726562 83.945312 C 86.710938 83.945312 86.691406 83.945312 86.675781 83.941406 C 86.589844 83.917969 78.214844 81.757812 76.097656 81.128906 C 73.964844 80.492188 72.277344 80.496094 70.492188 80.5 L 70.488281 80.5 C 68.59375 80.5 63.054688 77.960938 62.820312 77.851562 C 62.714844 77.804688 62.671875 77.679688 62.71875 77.574219 C 62.765625 77.46875 62.890625 77.425781 62.996094 77.472656 C 63.050781 77.5 68.683594 80.085938 70.484375 80.085938 L 70.492188 80.085938 C 72.308594 80.078125 74.023438 80.074219 76.21875 80.726562 C 78.324219 81.355469 86.695312 83.515625 86.777344 83.535156 C 86.890625 83.5625 86.957031 83.679688 86.929688 83.789062 C 86.902344 83.882812 86.820312 83.945312 86.726562 83.945312 Z M 86.726562 83.945312 "/><path style=" stroke:none;fill-rule:nonzero;fill:#789dbc;fill-opacity:1;" d="M 108.46875 69.007812 C 108.46875 69.007812 113.507812 55.21875 114.707031 51.25 C 115.90625 47.285156 130.226562 47.324219 129.703125 56.417969 C 129.179688 65.492188 122.863281 73.484375 122.863281 73.484375 C 122.863281 73.484375 108.917969 69.460938 108.46875 69.007812 Z M 108.46875 69.007812 "/><path style=" stroke:none;fill-rule:nonzero;fill:#0f2135;fill-opacity:1;" d="M 122.589844 74.222656 C 122.542969 74.222656 122.5 74.207031 122.460938 74.175781 C 122.371094 74.105469 122.355469 73.972656 122.425781 73.882812 C 122.472656 73.824219 127.132812 67.839844 128.828125 60.710938 C 128.855469 60.597656 128.96875 60.527344 129.082031 60.554688 C 129.191406 60.582031 129.261719 60.695312 129.234375 60.804688 C 127.515625 68.027344 122.800781 74.082031 122.753906 74.140625 C 122.710938 74.195312 122.652344 74.222656 122.589844 74.222656 Z M 122.589844 74.222656 "/><path style=" stroke:none;fill-rule:nonzero;fill:#0f2135;fill-opacity:1;" d="M 108.46875 69.21875 C 108.445312 69.21875 108.417969 69.214844 108.394531 69.203125 C 108.289062 69.164062 108.230469 69.046875 108.273438 68.9375 C 108.433594 68.488281 112.628906 56.835938 113.335938 54.738281 C 113.375 54.628906 113.492188 54.570312 113.601562 54.605469 C 113.710938 54.644531 113.769531 54.761719 113.730469 54.871094 C 113.023438 56.972656 108.824219 68.632812 108.664062 69.082031 C 108.632812 69.164062 108.550781 69.21875 108.46875 69.21875 Z M 108.46875 69.21875 "/><path style=" stroke:none;fill-rule:nonzero;fill:#0f2135;fill-opacity:1;" d="M 129.03125 98.664062 C 129.03125 98.664062 107.394531 83.1875 98.707031 86.285156 C 90.019531 89.378906 91.191406 96.320312 91.910156 108.941406 C 92.628906 121.558594 95.332031 132.375 95.332031 132.375 C 95.332031 132.375 97.667969 133.820312 102.886719 134.179688 C 108.105469 134.539062 114.585938 133.367188 114.585938 133.367188 L 115.125 126.519531 C 115.125 126.519531 130.871094 133.976562 141.101562 125.40625 C 149.984375 117.960938 141.101562 93.4375 141.101562 93.4375 C 141.101562 93.4375 133.160156 98.484375 129.03125 98.664062 Z M 129.03125 98.664062 "/><path style=" stroke:none;fill-rule:nonzero;fill:#c9e9d2;fill-opacity:1;" d="M 115.125 126.726562 C 115.121094 126.726562 115.113281 126.726562 115.105469 126.726562 C 114.992188 126.714844 114.90625 126.613281 114.917969 126.5 C 114.933594 126.339844 116.339844 110.683594 114.921875 104.480469 C 114.898438 104.367188 114.96875 104.253906 115.078125 104.230469 C 115.191406 104.203125 115.304688 104.273438 115.328125 104.386719 C 116.757812 110.65625 115.347656 126.378906 115.332031 126.535156 C 115.324219 126.644531 115.234375 126.726562 115.125 126.726562 Z M 115.125 126.726562 "/><path style=" stroke:none;fill-rule:nonzero;fill:#c9e9d2;fill-opacity:1;" d="M 136.902344 104.640625 C 136.855469 104.640625 136.808594 104.625 136.769531 104.59375 C 132.863281 101.394531 128.957031 98.863281 128.917969 98.839844 C 128.824219 98.777344 128.792969 98.648438 128.855469 98.550781 C 128.917969 98.453125 129.046875 98.425781 129.144531 98.488281 C 129.183594 98.515625 133.109375 101.058594 137.03125 104.273438 C 137.121094 104.34375 137.136719 104.476562 137.0625 104.566406 C 137.019531 104.617188 136.960938 104.640625 136.902344 104.640625 Z M 136.902344 104.640625 "/><path style=" stroke:none;fill-rule:nonzero;fill:#c9e9d2;fill-opacity:1;" d="M 98.660156 133.773438 C 98.636719 133.773438 98.613281 133.769531 98.59375 133.761719 L 95.261719 132.574219 C 95.191406 132.546875 95.140625 132.492188 95.125 132.417969 C 95.113281 132.359375 93.859375 126.390625 93.417969 123.875 C 92.957031 121.261719 91.738281 109.53125 91.210938 102.042969 C 90.675781 94.441406 92.421875 91.238281 92.496094 91.105469 C 92.550781 91.007812 92.679688 90.972656 92.777344 91.027344 C 92.878906 91.085938 92.914062 91.210938 92.859375 91.3125 C 92.839844 91.34375 91.101562 94.554688 91.625 102.015625 C 92.152344 109.492188 93.367188 121.199219 93.828125 123.800781 C 94.234375 126.117188 95.332031 131.375 95.511719 132.21875 L 98.730469 133.367188 C 98.839844 133.40625 98.898438 133.527344 98.859375 133.632812 C 98.828125 133.71875 98.746094 133.773438 98.660156 133.773438 Z M 98.660156 133.773438 "/><path style=" stroke:none;fill-rule:nonzero;fill:#c9e9d2;fill-opacity:1;" d="M 86.742188 142.875 C 86.445312 142.875 86.257812 142.867188 86.222656 142.863281 C 86.109375 142.859375 86.019531 142.761719 86.023438 142.644531 C 86.03125 142.53125 86.128906 142.441406 86.242188 142.449219 C 86.285156 142.449219 90.539062 142.636719 93.207031 140.992188 C 95.878906 139.339844 98.761719 133.933594 98.789062 133.878906 C 98.84375 133.777344 98.96875 133.738281 99.070312 133.792969 C 99.171875 133.847656 99.210938 133.972656 99.15625 134.074219 C 99.039062 134.300781 96.195312 139.636719 93.425781 141.34375 C 91.183594 142.726562 87.988281 142.875 86.742188 142.875 Z M 86.742188 142.875 "/><path style=" stroke:none;fill-rule:nonzero;fill:#0f2135;fill-opacity:1;" d="M 141.425781 150.242188 L 2.292969 150.242188 C 1.945312 150.242188 1.667969 149.964844 1.667969 149.617188 C 1.667969 149.273438 1.945312 148.992188 2.292969 148.992188 L 141.425781 148.992188 C 141.769531 148.992188 142.050781 149.273438 142.050781 149.617188 C 142.050781 149.964844 141.769531 150.242188 141.425781 150.242188 Z M 141.425781 150.242188 "/><path style=" stroke:none;fill-rule:nonzero;fill:#c9e9d2;fill-opacity:1;" d="M 34.113281 5.078125 L 23.160156 5.078125 L 17.683594 14.582031 L 23.160156 24.082031 L 34.113281 24.082031 L 39.585938 14.582031 Z M 34.113281 5.078125 "/><g clip-rule="nonzero" clip-path="url(#81b2f07924)"><path style=" stroke:none;fill-rule:nonzero;fill:#789dbc;fill-opacity:1;" d="M 34.113281 24.417969 L 23.160156 24.417969 C 23.039062 24.417969 22.929688 24.351562 22.871094 24.25 L 17.394531 14.75 C 17.335938 14.644531 17.335938 14.519531 17.394531 14.414062 L 22.871094 4.914062 C 22.929688 4.808594 23.039062 4.746094 23.160156 4.746094 L 34.113281 4.746094 C 34.230469 4.746094 34.339844 4.808594 34.402344 4.914062 L 39.875 14.414062 C 39.9375 14.519531 39.9375 14.644531 39.875 14.75 L 34.402344 24.25 C 34.339844 24.351562 34.230469 24.417969 34.113281 24.417969 Z M 23.351562 23.75 L 33.917969 23.75 L 39.203125 14.582031 L 33.917969 5.414062 L 23.351562 5.414062 L 18.070312 14.582031 Z M 23.351562 23.75 "/></g><path style=" stroke:none;fill-rule:nonzero;fill:#c9e9d2;fill-opacity:1;" d="M 34.113281 33.046875 L 23.160156 33.046875 L 17.683594 42.546875 L 23.160156 52.046875 L 34.113281 52.046875 L 39.585938 42.546875 Z M 34.113281 33.046875 "/><path style=" stroke:none;fill-rule:nonzero;fill:#789dbc;fill-opacity:1;" d="M 34.113281 52.382812 L 23.160156 52.382812 C 23.039062 52.382812 22.929688 52.320312 22.871094 52.214844 L 17.394531 42.714844 C 17.335938 42.609375 17.335938 42.484375 17.394531 42.378906 L 22.871094 32.878906 C 22.929688 32.777344 23.039062 32.710938 23.160156 32.710938 L 34.113281 32.710938 C 34.230469 32.710938 34.339844 32.777344 34.402344 32.878906 L 39.875 42.378906 C 39.9375 42.484375 39.9375 42.609375 39.875 42.714844 L 34.402344 52.214844 C 34.339844 52.320312 34.230469 52.382812 34.113281 52.382812 Z M 23.351562 51.714844 L 33.917969 51.714844 L 39.203125 42.546875 L 33.917969 33.378906 L 23.351562 33.378906 L 18.070312 42.546875 Z M 23.351562 51.714844 "/><path style=" stroke:none;fill-rule:nonzero;fill:#c9e9d2;fill-opacity:1;" d="M 16.785156 19.0625 L 5.832031 19.0625 L 0.355469 28.5625 L 5.832031 38.066406 L 16.785156 38.066406 L 22.261719 28.5625 Z M 16.785156 19.0625 "/><path style=" stroke:none;fill-rule:nonzero;fill:#789dbc;fill-opacity:1;" d="M 16.785156 38.398438 L 5.832031 38.398438 C 5.714844 38.398438 5.605469 38.335938 5.542969 38.234375 L 0.0664062 28.730469 C 0.0078125 28.628906 0.0078125 28.5 0.0664062 28.398438 L 5.542969 18.894531 C 5.605469 18.792969 5.714844 18.730469 5.832031 18.730469 L 16.785156 18.730469 C 16.902344 18.730469 17.011719 18.792969 17.074219 18.894531 L 22.550781 28.398438 C 22.609375 28.5 22.609375 28.628906 22.550781 28.730469 L 17.074219 38.234375 C 17.011719 38.335938 16.902344 38.398438 16.785156 38.398438 Z M 6.023438 37.730469 L 16.59375 37.730469 L 21.875 28.5625 L 16.59375 19.398438 L 6.023438 19.398438 L 0.742188 28.5625 Z M 6.023438 37.730469 "/><path style=" stroke:none;fill-rule:nonzero;fill:#c9e9d2;fill-opacity:1;" d="M 51.4375 19.0625 L 40.488281 19.0625 L 35.011719 28.5625 L 40.488281 38.066406 L 51.4375 38.066406 L 56.914062 28.5625 Z M 51.4375 19.0625 "/><path style=" stroke:none;fill-rule:nonzero;fill:#789dbc;fill-opacity:1;" d="M 51.4375 38.398438 L 40.488281 38.398438 C 40.367188 38.398438 40.257812 38.335938 40.199219 38.234375 L 34.722656 28.730469 C 34.664062 28.628906 34.664062 28.5 34.722656 28.398438 L 40.199219 18.894531 C 40.257812 18.792969 40.367188 18.730469 40.488281 18.730469 L 51.4375 18.730469 C 51.558594 18.730469 51.667969 18.792969 51.726562 18.894531 L 57.203125 28.398438 C 57.261719 28.5 57.261719 28.628906 57.203125 28.730469 L 51.726562 38.234375 C 51.667969 38.335938 51.558594 38.398438 51.4375 38.398438 Z M 40.679688 37.730469 L 51.246094 37.730469 L 56.53125 28.5625 L 51.246094 19.398438 L 40.679688 19.398438 L 35.394531 28.5625 Z M 40.679688 37.730469 "/><path style=" stroke:none;fill-rule:nonzero;fill:#789dbc;fill-opacity:1;" d="M 28.636719 19.074219 C 26.164062 19.074219 24.152344 17.058594 24.152344 14.582031 C 24.152344 12.105469 26.164062 10.089844 28.636719 10.089844 C 31.109375 10.089844 33.121094 12.105469 33.121094 14.582031 C 33.121094 17.058594 31.109375 19.074219 28.636719 19.074219 Z M 28.636719 10.757812 C 26.53125 10.757812 24.816406 12.472656 24.816406 14.582031 C 24.816406 16.691406 26.53125 18.40625 28.636719 18.40625 C 30.742188 18.40625 32.453125 16.691406 32.453125 14.582031 C 32.453125 12.472656 30.742188 10.757812 28.636719 10.757812 Z M 28.636719 10.757812 "/><path style=" stroke:none;fill-rule:nonzero;fill:#789dbc;fill-opacity:1;" d="M 24.921875 11.222656 C 24.835938 11.222656 24.75 11.191406 24.6875 11.125 L 23.355469 9.800781 C 23.222656 9.671875 23.222656 9.460938 23.351562 9.332031 C 23.484375 9.199219 23.695312 9.199219 23.824219 9.328125 L 25.15625 10.652344 C 25.285156 10.78125 25.289062 10.992188 25.15625 11.125 C 25.09375 11.191406 25.007812 11.222656 24.921875 11.222656 Z M 24.921875 11.222656 "/><path style=" stroke:none;fill-rule:nonzero;fill:#789dbc;fill-opacity:1;" d="M 28.617188 9.671875 C 28.433594 9.671875 28.28125 9.523438 28.28125 9.339844 L 28.273438 7.460938 C 28.273438 7.277344 28.421875 7.125 28.605469 7.125 L 28.609375 7.125 C 28.792969 7.125 28.941406 7.273438 28.941406 7.457031 L 28.949219 9.335938 C 28.949219 9.523438 28.800781 9.671875 28.617188 9.671875 Z M 28.617188 9.671875 "/><path style=" stroke:none;fill-rule:nonzero;fill:#789dbc;fill-opacity:1;" d="M 32.320312 11.195312 C 32.238281 11.195312 32.152344 11.160156 32.085938 11.097656 C 31.957031 10.96875 31.957031 10.753906 32.085938 10.625 L 33.40625 9.292969 C 33.535156 9.160156 33.746094 9.160156 33.878906 9.289062 C 34.007812 9.417969 34.007812 9.628906 33.878906 9.761719 L 32.558594 11.09375 C 32.492188 11.160156 32.40625 11.195312 32.320312 11.195312 Z M 32.320312 11.195312 "/><path style=" stroke:none;fill-rule:nonzero;fill:#789dbc;fill-opacity:1;" d="M 33.871094 14.894531 C 33.6875 14.894531 33.535156 14.746094 33.535156 14.5625 C 33.535156 14.378906 33.683594 14.226562 33.867188 14.226562 L 35.742188 14.21875 L 35.746094 14.21875 C 35.929688 14.21875 36.078125 14.367188 36.078125 14.550781 C 36.078125 14.738281 35.929688 14.886719 35.746094 14.886719 Z M 33.871094 14.894531 "/><path style=" stroke:none;fill-rule:nonzero;fill:#789dbc;fill-opacity:1;" d="M 33.683594 19.929688 C 33.597656 19.929688 33.511719 19.898438 33.449219 19.835938 L 32.117188 18.511719 C 31.984375 18.382812 31.984375 18.167969 32.113281 18.039062 C 32.242188 17.90625 32.453125 17.90625 32.585938 18.039062 L 33.917969 19.359375 C 34.046875 19.492188 34.046875 19.703125 33.917969 19.832031 C 33.851562 19.898438 33.769531 19.929688 33.683594 19.929688 Z M 33.683594 19.929688 "/><path style=" stroke:none;fill-rule:nonzero;fill:#789dbc;fill-opacity:1;" d="M 28.664062 22.035156 C 28.480469 22.035156 28.332031 21.886719 28.332031 21.703125 L 28.324219 19.824219 C 28.320312 19.640625 28.472656 19.492188 28.65625 19.488281 C 28.839844 19.488281 28.988281 19.640625 28.988281 19.824219 L 28.996094 21.703125 C 28.996094 21.886719 28.847656 22.035156 28.664062 22.035156 Z M 28.664062 22.035156 "/><path style=" stroke:none;fill-rule:nonzero;fill:#789dbc;fill-opacity:1;" d="M 23.628906 19.96875 C 23.542969 19.96875 23.457031 19.9375 23.394531 19.875 C 23.261719 19.742188 23.261719 19.53125 23.390625 19.402344 L 24.714844 18.066406 C 24.84375 17.9375 25.054688 17.9375 25.183594 18.066406 C 25.316406 18.195312 25.316406 18.40625 25.1875 18.539062 L 23.867188 19.871094 C 23.800781 19.9375 23.714844 19.96875 23.628906 19.96875 Z M 23.628906 19.96875 "/><path style=" stroke:none;fill-rule:nonzero;fill:#789dbc;fill-opacity:1;" d="M 21.527344 14.941406 C 21.34375 14.941406 21.195312 14.792969 21.195312 14.609375 C 21.191406 14.425781 21.339844 14.277344 21.527344 14.273438 L 23.402344 14.269531 C 23.585938 14.265625 23.734375 14.414062 23.734375 14.601562 C 23.738281 14.785156 23.585938 14.933594 23.402344 14.933594 Z M 21.527344 14.941406 "/><path style=" stroke:none;fill-rule:nonzero;fill:#789dbc;fill-opacity:1;" d="M 29.996094 50.132812 L 27.277344 50.132812 C 25.652344 50.132812 24.332031 48.8125 24.332031 47.1875 L 24.332031 39.160156 C 24.332031 37.535156 25.652344 36.210938 27.277344 36.210938 L 29.996094 36.210938 C 31.617188 36.210938 32.9375 37.535156 32.9375 39.160156 L 32.9375 47.1875 C 32.9375 48.8125 31.617188 50.132812 29.996094 50.132812 Z M 27.277344 36.878906 C 26.019531 36.878906 25 37.902344 25 39.160156 L 25 47.1875 C 25 48.441406 26.019531 49.464844 27.277344 49.464844 L 29.996094 49.464844 C 31.25 49.464844 32.273438 48.441406 32.273438 47.1875 L 32.273438 39.160156 C 32.273438 37.902344 31.25 36.878906 29.996094 36.878906 Z M 27.277344 36.878906 "/><path style=" stroke:none;fill-rule:nonzero;fill:#789dbc;fill-opacity:1;" d="M 29.796875 36.878906 L 27.476562 36.878906 C 27.292969 36.878906 27.140625 36.730469 27.140625 36.546875 L 27.140625 35.296875 C 27.140625 35.109375 27.292969 34.960938 27.476562 34.960938 L 29.796875 34.960938 C 29.980469 34.960938 30.128906 35.109375 30.128906 35.296875 L 30.128906 36.546875 C 30.128906 36.730469 29.980469 36.878906 29.796875 36.878906 Z M 27.808594 36.210938 L 29.460938 36.210938 L 29.460938 35.628906 L 27.808594 35.628906 Z M 27.808594 36.210938 "/><path style=" stroke:none;fill-rule:nonzero;fill:#789dbc;fill-opacity:1;" d="M 30.335938 48.9375 L 26.9375 48.9375 C 26.167969 48.9375 25.539062 48.3125 25.539062 47.539062 L 25.539062 47.519531 C 25.539062 46.75 26.167969 46.121094 26.9375 46.121094 L 30.335938 46.121094 C 31.105469 46.121094 31.730469 46.75 31.730469 47.519531 L 31.730469 47.539062 C 31.730469 48.3125 31.105469 48.9375 30.335938 48.9375 Z M 26.9375 46.789062 C 26.535156 46.789062 26.207031 47.117188 26.207031 47.519531 L 26.207031 47.539062 C 26.207031 47.941406 26.535156 48.273438 26.9375 48.273438 L 30.335938 48.273438 C 30.738281 48.273438 31.066406 47.941406 31.066406 47.539062 L 31.066406 47.519531 C 31.066406 47.117188 30.738281 46.789062 30.335938 46.789062 Z M 26.9375 46.789062 "/><path style=" stroke:none;fill-rule:nonzero;fill:#789dbc;fill-opacity:1;" d="M 30.335938 45.898438 L 26.9375 45.898438 C 26.167969 45.898438 25.539062 45.269531 25.539062 44.5 L 25.539062 44.480469 C 25.539062 43.707031 26.167969 43.082031 26.9375 43.082031 L 30.335938 43.082031 C 31.105469 43.082031 31.730469 43.707031 31.730469 44.480469 L 31.730469 44.5 C 31.730469 45.269531 31.105469 45.898438 30.335938 45.898438 Z M 26.9375 43.75 C 26.535156 43.75 26.207031 44.078125 26.207031 44.480469 L 26.207031 44.5 C 26.207031 44.902344 26.535156 45.230469 26.9375 45.230469 L 30.335938 45.230469 C 30.738281 45.230469 31.066406 44.902344 31.066406 44.5 L 31.066406 44.480469 C 31.066406 44.078125 30.738281 43.75 30.335938 43.75 Z M 26.9375 43.75 "/><path style=" stroke:none;fill-rule:nonzero;fill:#789dbc;fill-opacity:1;" d="M 30.335938 42.855469 L 26.9375 42.855469 C 26.167969 42.855469 25.539062 42.230469 25.539062 41.457031 L 25.539062 41.4375 C 25.539062 40.667969 26.167969 40.039062 26.9375 40.039062 L 30.335938 40.039062 C 31.105469 40.039062 31.730469 40.667969 31.730469 41.4375 L 31.730469 41.457031 C 31.730469 42.230469 31.105469 42.855469 30.335938 42.855469 Z M 26.9375 40.707031 C 26.535156 40.707031 26.207031 41.035156 26.207031 41.441406 L 26.207031 41.457031 C 26.207031 41.863281 26.535156 42.191406 26.9375 42.191406 L 30.335938 42.191406 C 30.738281 42.191406 31.066406 41.863281 31.066406 41.457031 L 31.066406 41.441406 C 31.066406 41.035156 30.738281 40.707031 30.335938 40.707031 Z M 26.9375 40.707031 "/><path style=" stroke:none;fill-rule:nonzero;fill:#789dbc;fill-opacity:1;" d="M 11.3125 36.445312 C 9.578125 36.445312 8.023438 35.5 7.152344 33.828125 C 4.792969 29.316406 10.761719 21.84375 11.019531 21.527344 C 11.082031 21.449219 11.171875 21.40625 11.273438 21.402344 C 11.371094 21.398438 11.464844 21.445312 11.53125 21.519531 C 11.714844 21.734375 16.097656 26.867188 16.285156 31.269531 C 16.402344 34.011719 14.53125 35.753906 12.628906 36.269531 C 12.183594 36.386719 11.742188 36.445312 11.3125 36.445312 Z M 11.285156 22.273438 C 10.175781 23.75 5.847656 29.890625 7.742188 33.519531 C 8.882812 35.703125 10.992188 36.015625 12.453125 35.625 C 14.101562 35.179688 15.722656 33.671875 15.621094 31.300781 C 15.464844 27.726562 12.238281 23.457031 11.285156 22.273438 Z M 11.285156 22.273438 "/><path style=" stroke:none;fill-rule:nonzero;fill:#789dbc;fill-opacity:1;" d="M 11.316406 34.777344 C 10.59375 34.777344 10.09375 34.554688 10.050781 34.535156 C 9.886719 34.457031 9.8125 34.257812 9.890625 34.089844 C 9.96875 33.925781 10.164062 33.851562 10.332031 33.929688 C 10.398438 33.957031 11.855469 34.597656 13.34375 33.296875 C 13.480469 33.175781 13.691406 33.191406 13.8125 33.332031 C 13.933594 33.46875 13.917969 33.679688 13.78125 33.800781 C 12.890625 34.574219 12.003906 34.777344 11.316406 34.777344 Z M 11.316406 34.777344 "/><path style=" stroke:none;fill-rule:nonzero;fill:#789dbc;fill-opacity:1;" d="M 14.203125 32.941406 C 14.136719 32.941406 14.070312 32.921875 14.011719 32.878906 C 13.859375 32.773438 13.828125 32.5625 13.933594 32.414062 C 14.066406 32.226562 14.480469 31.566406 14.152344 30.886719 C 14.074219 30.71875 14.144531 30.519531 14.308594 30.441406 C 14.476562 30.359375 14.675781 30.429688 14.753906 30.597656 C 15.238281 31.609375 14.664062 32.542969 14.476562 32.804688 C 14.410156 32.894531 14.308594 32.941406 14.203125 32.941406 Z M 14.203125 32.941406 "/><path style=" stroke:none;fill-rule:nonzero;fill:#789dbc;fill-opacity:1;" d="M 46 27.878906 C 45.960938 27.878906 45.921875 27.875 45.886719 27.859375 C 45.863281 27.851562 43.699219 27.039062 43.699219 24.785156 C 43.699219 22.625 45.679688 20.632812 45.765625 20.550781 C 45.894531 20.421875 46.101562 20.421875 46.234375 20.546875 C 46.316406 20.628906 48.296875 22.597656 48.296875 24.785156 C 48.296875 27.066406 46.132812 27.851562 46.109375 27.859375 C 46.074219 27.875 46.039062 27.878906 46 27.878906 Z M 46 21.277344 C 45.5 21.851562 44.367188 23.3125 44.367188 24.785156 C 44.367188 26.320312 45.613281 27.007812 46 27.183594 C 46.390625 27.011719 47.632812 26.335938 47.632812 24.785156 C 47.632812 23.296875 46.503906 21.847656 46 21.277344 Z M 46 21.277344 "/><path style=" stroke:none;fill-rule:nonzero;fill:#789dbc;fill-opacity:1;" d="M 44.238281 31.390625 C 43.722656 31.390625 43.136719 31.261719 42.53125 30.882812 C 40.738281 29.765625 40.027344 27.222656 39.996094 27.117188 C 39.972656 27.027344 39.984375 26.929688 40.035156 26.851562 C 40.082031 26.773438 40.164062 26.71875 40.253906 26.699219 C 40.363281 26.679688 42.9375 26.183594 44.746094 27.3125 C 46.640625 28.496094 46.277344 30.507812 46.257812 30.59375 C 46.242188 30.675781 46.199219 30.746094 46.128906 30.796875 C 46.082031 30.832031 45.3125 31.390625 44.238281 31.390625 Z M 40.757812 27.300781 C 41.011719 28.007812 41.683594 29.570312 42.882812 30.316406 C 44.132812 31.097656 45.265625 30.546875 45.621094 30.332031 C 45.660156 29.921875 45.660156 28.667969 44.394531 27.882812 C 43.183594 27.125 41.5 27.214844 40.757812 27.300781 Z M 45.933594 30.527344 Z M 45.933594 30.527344 Z M 45.933594 30.527344 "/><path style=" stroke:none;fill-rule:nonzero;fill:#789dbc;fill-opacity:1;" d="M 44.238281 36.359375 C 43.722656 36.359375 43.136719 36.230469 42.53125 35.851562 C 40.738281 34.734375 40.027344 32.191406 39.996094 32.082031 C 39.972656 31.992188 39.984375 31.898438 40.035156 31.816406 C 40.082031 31.738281 40.164062 31.683594 40.253906 31.667969 C 40.363281 31.644531 42.9375 31.152344 44.746094 32.28125 C 46.640625 33.460938 46.277344 35.472656 46.257812 35.558594 C 46.242188 35.640625 46.199219 35.714844 46.128906 35.765625 C 46.082031 35.796875 45.3125 36.359375 44.238281 36.359375 Z M 40.757812 32.265625 C 41.011719 32.972656 41.683594 34.535156 42.882812 35.285156 C 44.132812 36.0625 45.265625 35.511719 45.621094 35.300781 C 45.660156 34.890625 45.660156 33.636719 44.394531 32.847656 C 43.183594 32.09375 41.5 32.179688 40.757812 32.265625 Z M 45.933594 35.496094 Z M 45.933594 35.496094 Z M 45.933594 35.496094 "/><path style=" stroke:none;fill-rule:nonzero;fill:#789dbc;fill-opacity:1;" d="M 46 36.355469 C 45.816406 36.355469 45.667969 36.203125 45.667969 36.019531 L 45.667969 27.664062 C 45.667969 27.480469 45.816406 27.332031 46 27.332031 C 46.183594 27.332031 46.332031 27.480469 46.332031 27.664062 L 46.332031 36.019531 C 46.332031 36.203125 46.183594 36.355469 46 36.355469 Z M 46 36.355469 "/><path style=" stroke:none;fill-rule:nonzero;fill:#789dbc;fill-opacity:1;" d="M 47.6875 31.390625 C 46.617188 31.390625 45.84375 30.832031 45.796875 30.796875 C 45.730469 30.746094 45.683594 30.675781 45.667969 30.59375 C 45.652344 30.507812 45.285156 28.496094 47.179688 27.3125 C 48.992188 26.183594 51.566406 26.679688 51.671875 26.699219 C 51.765625 26.71875 51.84375 26.773438 51.890625 26.851562 C 51.941406 26.929688 51.953125 27.027344 51.929688 27.117188 C 51.902344 27.222656 51.1875 29.765625 49.398438 30.882812 C 48.789062 31.261719 48.203125 31.390625 47.6875 31.390625 Z M 46.304688 30.332031 C 46.660156 30.546875 47.792969 31.097656 49.042969 30.316406 C 50.242188 29.570312 50.914062 28.007812 51.167969 27.300781 C 50.425781 27.214844 48.742188 27.125 47.53125 27.882812 C 46.269531 28.667969 46.265625 29.921875 46.304688 30.332031 Z M 46.304688 30.332031 "/><path style=" stroke:none;fill-rule:nonzero;fill:#789dbc;fill-opacity:1;" d="M 47.6875 36.359375 C 46.617188 36.359375 45.84375 35.796875 45.796875 35.765625 C 45.730469 35.714844 45.683594 35.640625 45.667969 35.558594 C 45.652344 35.472656 45.285156 33.460938 47.179688 32.28125 C 48.992188 31.152344 51.566406 31.644531 51.671875 31.667969 C 51.765625 31.683594 51.84375 31.738281 51.890625 31.816406 C 51.941406 31.898438 51.953125 31.992188 51.929688 32.082031 C 51.902344 32.191406 51.1875 34.734375 49.398438 35.851562 C 48.789062 36.230469 48.203125 36.359375 47.6875 36.359375 Z M 46.304688 35.300781 C 46.660156 35.515625 47.792969 36.0625 49.042969 35.285156 C 50.242188 34.539062 50.914062 32.972656 51.167969 32.265625 C 50.425781 32.179688 48.742188 32.09375 47.53125 32.847656 C 46.269531 33.636719 46.265625 34.890625 46.304688 35.300781 Z M 46.304688 35.300781 "/></g></svg>