<svg xmlns="http://www.w3.org/2000/svg" xmlns:xlink="http://www.w3.org/1999/xlink" viewBox="0 0 287.94 287.68"><defs><style>.cls-1,.cls-6{fill:#fff;}.cls-2{fill:#79c148;}.cls-3{fill:#99c43f;}.cls-4{fill:#a1cd3f;}.cls-5{fill:#42b652;}.cls-10,.cls-11,.cls-12,.cls-13,.cls-14,.cls-15,.cls-6,.cls-7,.cls-8,.cls-9{stroke-miterlimit:10;}.cls-6{stroke:url(#linear-gradient);}.cls-10,.cls-11,.cls-12,.cls-13,.cls-14,.cls-15,.cls-7,.cls-8,.cls-9{fill:#f4982b;}.cls-7{stroke:url(#linear-gradient-2);}.cls-8{stroke:url(#linear-gradient-3);}.cls-9{stroke:url(#linear-gradient-4);}.cls-10{stroke:url(#linear-gradient-5);}.cls-11{stroke:url(#linear-gradient-6);}.cls-12{stroke:url(#linear-gradient-7);}.cls-13{stroke:url(#linear-gradient-8);}.cls-14{stroke:url(#linear-gradient-9);}.cls-15{stroke:url(#linear-gradient-10);}</style><linearGradient id="linear-gradient" x1="2.45" y1="94.26" x2="286.61" y2="94.26" gradientUnits="userSpaceOnUse"><stop offset="0" stop-color="#fff" stop-opacity="0.8"/><stop offset="0.47" stop-color="#fff" stop-opacity="0.5"/><stop offset="1" stop-color="#fff" stop-opacity="0.8"/></linearGradient><linearGradient id="linear-gradient-2" x1="146.73" y1="136.03" x2="184.66" y2="136.03" xlink:href="#linear-gradient"/><linearGradient id="linear-gradient-3" x1="146.9" y1="108.91" x2="184.83" y2="108.91" xlink:href="#linear-gradient"/><linearGradient id="linear-gradient-4" x1="147.27" y1="80.64" x2="185.2" y2="80.64" xlink:href="#linear-gradient"/><linearGradient id="linear-gradient-5" x1="147.27" y1="51.34" x2="184.29" y2="51.34" xlink:href="#linear-gradient"/><linearGradient id="linear-gradient-6" x1="103.2" y1="136.03" x2="140.72" y2="136.03" xlink:href="#linear-gradient"/><linearGradient id="linear-gradient-7" x1="103.37" y1="108.91" x2="140.89" y2="108.91" xlink:href="#linear-gradient"/><linearGradient id="linear-gradient-8" x1="103.35" y1="80.65" x2="140.87" y2="80.65" xlink:href="#linear-gradient"/><linearGradient id="linear-gradient-9" x1="104.52" y1="51.35" x2="141.23" y2="51.35" xlink:href="#linear-gradient"/><linearGradient id="linear-gradient-10" x1="129.15" y1="28.01" x2="158.45" y2="28.01" xlink:href="#linear-gradient"/></defs><g id="Layer_2" data-name="Layer 2"><g id="Layer_1-2" data-name="Layer 1"><circle class="cls-1" cx="143.8" cy="143.88" r="143.8"/><path class="cls-2" d="M150.49,287.49c-2.13.1-4.28.15-6.43.15A143.89,143.89,0,0,1,107.63,283a158.18,158.18,0,0,0-28.1-59.57c-27.24-35.65-62.34-49.57-77-54.46A144.83,144.83,0,0,1,.31,143.88a186.58,186.58,0,0,1,91.86,43.81C134.74,225.33,147,271.38,150.49,287.49Z"/><path class="cls-3" d="M198.91,276.77a142.56,142.56,0,0,1-48.48,10.72c-3.51-16.11-15.75-62.16-58.32-99.8A186.58,186.58,0,0,0,.25,143.88a144.46,144.46,0,0,1,2.84-28.56,226.88,226.88,0,0,1,100.56,34.44A220,220,0,0,1,148,187.34a232.4,232.4,0,0,1,22,28.44,245.49,245.49,0,0,1,19.08,34.95A236.26,236.26,0,0,1,198.91,276.77Z"/><path class="cls-4" d="M287.94,143.86c0,.89,0,1.77,0,2.65-23.05,2.33-77.65,11.27-108.71,54.4a109.2,109.2,0,0,0-9,14.85,232.4,232.4,0,0,0-22-28.44,149.81,149.81,0,0,1,30.69-32.73c41.77-32.79,89.5-33.48,107.34-32.81A144.81,144.81,0,0,1,287.94,143.86Z"/><path class="cls-5" d="M285.66,168.77a143.9,143.9,0,0,1-86.69,108,236.26,236.26,0,0,0-9.8-26,126.07,126.07,0,0,1,11.35-22.32C225.82,189,266.84,174.15,285.66,168.77Z"/><path class="cls-2" d="M287.94,146.53a145.35,145.35,0,0,1-2.12,22.24h0C267,174.15,226,189,200.67,228.41a126.07,126.07,0,0,0-11.35,22.32,245.49,245.49,0,0,0-19.08-34.95,109.2,109.2,0,0,1,9-14.85C210.29,157.8,264.89,148.86,287.94,146.53Z"/><path class="cls-6" d="M286,122.17c-17.84-.67-65.57,0-107.34,32.81A149.81,149.81,0,0,0,148,187.71a220,220,0,0,0-44.39-37.58A226.88,226.88,0,0,0,3.05,115.69a143.78,143.78,0,0,1,283,6.48Z"/><path class="cls-5" d="M107.63,283A143.92,143.92,0,0,1,2.49,169c14.7,4.89,49.8,18.81,77,54.46A158.18,158.18,0,0,1,107.63,283Z"/><path class="cls-7" d="M147.24,158.15a87.89,87.89,0,0,0,21.08-9c5.31-3.16,7.85-5.5,9.82-8.31.08-.12.19-.27.31-.46a28.73,28.73,0,0,0,3.84-9,73.73,73.73,0,0,0,1.87-18.11,15.23,15.23,0,0,1-1.92,6.75c-5.54,9.74-19.43,6.92-30.27,17.77a31,31,0,0,0-4.7,6.06Z"/><path class="cls-8" d="M147.4,131a88.13,88.13,0,0,0,21.09-9c5.3-3.16,7.85-5.5,9.81-8.31l.32-.46a28.72,28.72,0,0,0,3.83-9,73.16,73.16,0,0,0,1.88-18.12,15.55,15.55,0,0,1-1.92,6.76c-5.54,9.73-19.43,6.92-30.27,17.76a30.86,30.86,0,0,0-4.7,6.06Q147.43,123.89,147.4,131Z"/><path class="cls-9" d="M147.77,102.77a87.72,87.72,0,0,0,21.09-9c5.3-3.15,7.85-5.49,9.81-8.3.09-.12.19-.28.31-.46a28.73,28.73,0,0,0,3.84-9,73.24,73.24,0,0,0,1.87-18.11,15.38,15.38,0,0,1-1.91,6.75c-5.54,9.73-19.44,6.92-30.27,17.77a30.86,30.86,0,0,0-4.7,6Q147.8,95.62,147.77,102.77Z"/><path class="cls-10" d="M147.77,73.86a88.18,88.18,0,0,0,21.09-9c5.3-3.16,7.85-5.5,9.81-8.31.09-.12.19-.27.31-.46a31.26,31.26,0,0,0,3.84-9c1.73-7.25.7-18.45.31-18.43-.22,0,1.07,3.43-.35,7.07-3.55,9.09-18.7,6.19-30.27,17.77a30.57,30.57,0,0,0-4.7,6.06Q147.8,66.7,147.77,73.86Z"/><path class="cls-11" d="M140.08,158.38a87.78,87.78,0,0,1-21-9.25c-5.27-3.22-7.78-5.59-9.71-8.43-.09-.12-.19-.27-.31-.46a28.5,28.5,0,0,1-3.72-9.06A72.54,72.54,0,0,1,103.72,113a15.32,15.32,0,0,0,1.83,6.78C111,129.62,124.89,127,135.6,138a30.81,30.81,0,0,1,4.62,6.11Q140.14,151.23,140.08,158.38Z"/><path class="cls-12" d="M140.25,131.26a87.38,87.38,0,0,1-21-9.25c-5.27-3.22-7.78-5.59-9.71-8.42l-.31-.47a28.5,28.5,0,0,1-3.72-9.06,72.49,72.49,0,0,1-1.65-18.14,15.32,15.32,0,0,0,1.83,6.78c5.42,9.8,19.34,7.16,30,18.14a30.94,30.94,0,0,1,4.63,6.11Q140.32,124.1,140.25,131.26Z"/><path class="cls-13" d="M140.23,103a88,88,0,0,1-21-9.25c-5.27-3.23-7.78-5.59-9.71-8.43-.09-.12-.19-.28-.31-.46a28.77,28.77,0,0,1-3.72-9.07,73.43,73.43,0,0,1-1.65-18.13,15.36,15.36,0,0,0,1.83,6.78c5.42,9.8,19.35,7.16,30.05,18.13a30.81,30.81,0,0,1,4.62,6.12Q140.31,95.85,140.23,103Z"/><path class="cls-14" d="M140.59,74.09a87.78,87.78,0,0,1-21-9.25c-5.27-3.22-7.78-5.59-9.71-8.43-.09-.12-.19-.27-.31-.46a31.44,31.44,0,0,1-3.72-9.06c-1.65-7.27-.48-18.46-.09-18.44.22,0-1.11,3.42.27,7.08,3.43,9.13,18.62,6.42,30.05,18.14a30.81,30.81,0,0,1,4.62,6.11Q140.66,66.94,140.59,74.09Z"/><path class="cls-15" d="M143,7.17a67.73,67.73,0,0,1-6.07,14c-3.67,6.34-7.33,10.18-7.23,16.4a12,12,0,0,0,1.25,5.6c2.46,4.78,8.23,7.07,13.1,7s10.39-2.56,12.76-7.35A12.17,12.17,0,0,0,158,37.57c.05-6.26-4.55-9.77-8.79-16.31A49.41,49.41,0,0,1,143,7.17Z"/></g></g></svg>